<svg width="184" height="44" viewBox="0 0 184 44" fill="none" xmlns="http://www.w3.org/2000/svg">
<rect y="8" width="36" height="28" rx="8" fill="white"/>
<path d="M18 30C18.3 30 18.5875 29.9833 18.8625 29.95C19.1375 29.9167 19.4167 29.8667 19.7 29.8L18.5 28H15V27C15 26.45 15.1958 25.9792 15.5875 25.5875C15.9792 25.1958 16.45 25 17 25H19V22H17C16.7167 22 16.4792 21.9042 16.2875 21.7125C16.0958 21.5208 16 21.2833 16 21V19H15.55C15.1167 19 14.75 18.8542 14.45 18.5625C14.15 18.2708 14 17.9083 14 17.475C14 17.325 14.0208 17.175 14.0625 17.025C14.1042 16.875 14.1667 16.7333 14.25 16.6L15.8 14.325C14.1167 14.8083 12.7292 15.75 11.6375 17.15C10.5458 18.55 10 20.1667 10 22H11V21C11 20.7167 11.0958 20.4792 11.2875 20.2875C11.4792 20.0958 11.7167 20 12 20H14C14.2833 20 14.5208 20.0958 14.7125 20.2875C14.9042 20.4792 15 20.7167 15 21V22C15 22.2833 14.9042 22.5208 14.7125 22.7125C14.5208 22.9042 14.2833 23 14 23V24C14 24.55 13.8042 25.0208 13.4125 25.4125C13.0208 25.8042 12.55 26 12 26H11.075C11.775 27.2 12.7333 28.1667 13.95 28.9C15.1667 29.6333 16.5167 30 18 30ZM25.6 24.45C25.7333 24.0667 25.8333 23.6708 25.9 23.2625C25.9667 22.8542 26 22.4333 26 22C26 20.1333 25.4333 18.4875 24.3 17.0625C23.1667 15.6375 21.7333 14.7 20 14.25V17C20.55 17 21.0208 17.1958 21.4125 17.5875C21.8042 17.9792 22 18.45 22 19V21C22.3167 21 22.6 21.0375 22.85 21.1125C23.1 21.1875 23.3417 21.3417 23.575 21.575L25.6 24.45ZM18 32C16.6167 32 15.3167 31.7375 14.1 31.2125C12.8833 30.6875 11.825 29.975 10.925 29.075C10.025 28.175 9.3125 27.1167 8.7875 25.9C8.2625 24.6833 8 23.3833 8 22C8 20.6167 8.2625 19.3167 8.7875 18.1C9.3125 16.8833 10.025 15.825 10.925 14.925C11.825 14.025 12.8833 13.3125 14.1 12.7875C15.3167 12.2625 16.6167 12 18 12C19.3833 12 20.6833 12.2625 21.9 12.7875C23.1167 13.3125 24.175 14.025 25.075 14.925C25.975 15.825 26.6875 16.8833 27.2125 18.1C27.7375 19.3167 28 20.6167 28 22C28 23.3833 27.7375 24.6833 27.2125 25.9C26.6875 27.1167 25.975 28.175 25.075 29.075C24.175 29.975 23.1167 30.6875 21.9 31.2125C20.6833 31.7375 19.3833 32 18 32Z" fill="#181E17"/>
<path d="M46.064 23V5.72H48.032V23H46.064ZM52.0138 23V10.76H53.8138V13.64H53.9338V23H52.0138ZM60.7738 23V14.984C60.7738 14.056 60.5418 13.36 60.0778 12.896C59.6138 12.432 58.9258 12.2 58.0138 12.2C57.2138 12.2 56.5018 12.376 55.8778 12.728C55.2698 13.08 54.7898 13.568 54.4378 14.192C54.1018 14.816 53.9338 15.544 53.9338 16.376L53.6217 13.472C54.0378 12.56 54.6698 11.84 55.5178 11.312C56.3818 10.784 57.3578 10.52 58.4458 10.52C59.7258 10.52 60.7498 10.888 61.5178 11.624C62.3018 12.344 62.6938 13.296 62.6938 14.48V23H60.7738ZM70.9488 23.216C69.5888 23.216 68.5968 22.912 67.9728 22.304C67.3648 21.68 67.0608 20.784 67.0608 19.616V7.904L68.9808 7.184V19.592C68.9808 20.28 69.1568 20.784 69.5088 21.104C69.8608 21.424 70.4368 21.584 71.2368 21.584C71.5568 21.584 71.8288 21.568 72.0528 21.536C72.2928 21.488 72.4848 21.432 72.6288 21.368V23C72.4688 23.064 72.2368 23.112 71.9328 23.144C71.6448 23.192 71.3168 23.216 70.9488 23.216ZM64.5408 12.392V10.76H72.6288V12.392H64.5408ZM79.8579 23.24C78.6899 23.24 77.6579 22.968 76.7619 22.424C75.8659 21.864 75.1619 21.104 74.6499 20.144C74.1379 19.184 73.8819 18.08 73.8819 16.832C73.8819 15.584 74.1299 14.488 74.6259 13.544C75.1379 12.584 75.8499 11.84 76.7619 11.312C77.6739 10.784 78.7219 10.52 79.9059 10.52C81.0419 10.52 82.0259 10.768 82.8579 11.264C83.7059 11.76 84.3539 12.456 84.8019 13.352C85.2659 14.248 85.4979 15.304 85.4979 16.52C85.4979 16.68 85.4899 16.832 85.4739 16.976C85.4739 17.12 85.4579 17.28 85.4259 17.456H75.3219V15.848H84.2499L83.6259 16.736C83.6259 15.264 83.2979 14.136 82.6419 13.352C82.0019 12.552 81.0899 12.152 79.9059 12.152C78.6899 12.152 77.7059 12.576 76.9539 13.424C76.2179 14.256 75.8499 15.384 75.8499 16.808C75.8499 18.264 76.2179 19.432 76.9539 20.312C77.7059 21.176 78.7059 21.608 79.9539 21.608C80.7379 21.608 81.4259 21.44 82.0179 21.104C82.6099 20.752 83.0419 20.256 83.3139 19.616H85.1379C84.7379 20.736 84.0659 21.624 83.1219 22.28C82.1939 22.92 81.1059 23.24 79.8579 23.24ZM88.3888 23V10.76H90.1888V13.88H90.3088V23H88.3888ZM90.3088 16.616L89.9967 13.712C90.2848 12.672 90.7968 11.88 91.5328 11.336C92.2688 10.792 93.1168 10.52 94.0768 10.52C94.4768 10.52 94.7488 10.552 94.8928 10.616V12.464C94.8128 12.432 94.7008 12.416 94.5568 12.416C94.4128 12.4 94.2368 12.392 94.0288 12.392C92.8128 12.392 91.8848 12.76 91.2448 13.496C90.6208 14.216 90.3088 15.256 90.3088 16.616ZM97.3888 23V10.76H99.1888V13.64H99.3088V23H97.3888ZM106.149 23V14.984C106.149 14.056 105.917 13.36 105.453 12.896C104.989 12.432 104.301 12.2 103.389 12.2C102.589 12.2 101.877 12.376 101.253 12.728C100.645 13.08 100.165 13.568 99.8128 14.192C99.4768 14.816 99.3088 15.544 99.3088 16.376L98.9967 13.472C99.4128 12.56 100.045 11.84 100.893 11.312C101.757 10.784 102.733 10.52 103.821 10.52C105.101 10.52 106.125 10.888 106.893 11.624C107.677 12.344 108.069 13.296 108.069 14.48V23H106.149ZM119.198 23C119.134 22.728 119.086 22.416 119.054 22.064C119.038 21.712 119.03 21.264 119.03 20.72H118.91V14.864C118.91 13.936 118.694 13.256 118.262 12.824C117.846 12.376 117.166 12.152 116.222 12.152C115.294 12.152 114.55 12.344 113.99 12.728C113.446 13.096 113.142 13.624 113.078 14.312H111.23C111.31 13.128 111.806 12.2 112.718 11.528C113.63 10.856 114.822 10.52 116.294 10.52C117.814 10.52 118.942 10.88 119.678 11.6C120.414 12.32 120.782 13.4 120.782 14.84V20.72C120.782 21.072 120.806 21.44 120.854 21.824C120.902 22.192 120.966 22.584 121.046 23H119.198ZM114.998 23.24C113.734 23.24 112.726 22.936 111.974 22.328C111.238 21.704 110.87 20.856 110.87 19.784C110.87 18.712 111.238 17.88 111.974 17.288C112.71 16.696 113.782 16.28 115.19 16.04L119.462 15.32V16.904L115.478 17.528C114.582 17.672 113.902 17.912 113.438 18.248C112.974 18.584 112.742 19.072 112.742 19.712C112.742 20.336 112.95 20.808 113.366 21.128C113.798 21.448 114.43 21.608 115.262 21.608C116.334 21.608 117.206 21.368 117.878 20.888C118.566 20.392 118.91 19.752 118.91 18.968L119.222 20.672C118.966 21.488 118.462 22.12 117.71 22.568C116.974 23.016 116.07 23.24 114.998 23.24ZM129.05 23.216C127.69 23.216 126.698 22.912 126.074 22.304C125.466 21.68 125.162 20.784 125.162 19.616V7.904L127.082 7.184V19.592C127.082 20.28 127.258 20.784 127.61 21.104C127.962 21.424 128.538 21.584 129.338 21.584C129.658 21.584 129.93 21.568 130.154 21.536C130.394 21.488 130.586 21.432 130.73 21.368V23C130.57 23.064 130.338 23.112 130.034 23.144C129.746 23.192 129.418 23.216 129.05 23.216ZM122.642 12.392V10.76H130.73V12.392H122.642ZM133.201 23V10.76H135.121V23H133.201ZM133.057 7.976V5.72H135.265V7.976H133.057ZM144.008 23.24C142.808 23.24 141.752 22.96 140.84 22.4C139.928 21.84 139.216 21.08 138.704 20.12C138.208 19.144 137.96 18.048 137.96 16.832C137.96 15.6 138.216 14.512 138.728 13.568C139.24 12.624 139.944 11.88 140.84 11.336C141.752 10.792 142.808 10.52 144.008 10.52C145.224 10.52 146.28 10.792 147.176 11.336C148.088 11.88 148.792 12.624 149.288 13.568C149.8 14.512 150.056 15.6 150.056 16.832C150.056 18.048 149.8 19.144 149.288 20.12C148.792 21.08 148.088 21.84 147.176 22.4C146.28 22.96 145.224 23.24 144.008 23.24ZM144.008 21.608C144.84 21.608 145.56 21.408 146.168 21.008C146.776 20.592 147.248 20.024 147.584 19.304C147.92 18.584 148.088 17.752 148.088 16.808C148.088 15.4 147.712 14.272 146.96 13.424C146.224 12.576 145.24 12.152 144.008 12.152C142.792 12.152 141.808 12.576 141.056 13.424C140.304 14.272 139.928 15.4 139.928 16.808C139.928 17.752 140.096 18.584 140.432 19.304C140.768 20.024 141.24 20.592 141.848 21.008C142.472 21.408 143.192 21.608 144.008 21.608ZM152.936 23V10.76H154.736V13.64H154.856V23H152.936ZM161.696 23V14.984C161.696 14.056 161.464 13.36 161 12.896C160.536 12.432 159.848 12.2 158.936 12.2C158.136 12.2 157.424 12.376 156.8 12.728C156.192 13.08 155.712 13.568 155.36 14.192C155.024 14.816 154.856 15.544 154.856 16.376L154.544 13.472C154.96 12.56 155.592 11.84 156.44 11.312C157.304 10.784 158.28 10.52 159.368 10.52C160.648 10.52 161.672 10.888 162.44 11.624C163.224 12.344 163.616 13.296 163.616 14.48V23H161.696ZM174.745 23C174.681 22.728 174.633 22.416 174.601 22.064C174.585 21.712 174.577 21.264 174.577 20.72H174.457V14.864C174.457 13.936 174.241 13.256 173.809 12.824C173.393 12.376 172.713 12.152 171.769 12.152C170.841 12.152 170.097 12.344 169.537 12.728C168.993 13.096 168.689 13.624 168.625 14.312H166.777C166.857 13.128 167.353 12.2 168.265 11.528C169.177 10.856 170.369 10.52 171.841 10.52C173.361 10.52 174.489 10.88 175.225 11.6C175.961 12.32 176.329 13.4 176.329 14.84V20.72C176.329 21.072 176.353 21.44 176.401 21.824C176.449 22.192 176.513 22.584 176.593 23H174.745ZM170.545 23.24C169.281 23.24 168.273 22.936 167.521 22.328C166.785 21.704 166.417 20.856 166.417 19.784C166.417 18.712 166.785 17.88 167.521 17.288C168.257 16.696 169.329 16.28 170.737 16.04L175.009 15.32V16.904L171.025 17.528C170.129 17.672 169.449 17.912 168.985 18.248C168.521 18.584 168.289 19.072 168.289 19.712C168.289 20.336 168.497 20.808 168.913 21.128C169.345 21.448 169.977 21.608 170.809 21.608C171.881 21.608 172.753 21.368 173.425 20.888C174.113 20.392 174.457 19.752 174.457 18.968L174.769 20.672C174.513 21.488 174.009 22.12 173.257 22.568C172.521 23.016 171.617 23.24 170.545 23.24ZM180.029 23V5.72H181.949V23H180.029Z" fill="white"/>
<path d="M45.032 41V32.36H46.016V41H45.032ZM45.536 41V40.136H50.816V41H45.536ZM45.536 36.932V36.068H50.384V36.932H45.536ZM45.536 33.224V32.36H50.72V33.224H45.536ZM52.6123 41V34.88H53.5123V36.32H53.5723V41H52.6123ZM56.9923 41V36.992C56.9923 36.528 56.8763 36.18 56.6443 35.948C56.4123 35.716 56.0683 35.6 55.6123 35.6C55.2123 35.6 54.8563 35.688 54.5443 35.864C54.2403 36.04 54.0003 36.284 53.8243 36.596C53.6563 36.908 53.5723 37.272 53.5723 37.688L53.4163 36.236C53.6243 35.78 53.9403 35.42 54.3643 35.156C54.7963 34.892 55.2843 34.76 55.8283 34.76C56.4683 34.76 56.9803 34.944 57.3643 35.312C57.7563 35.672 57.9523 36.148 57.9523 36.74V41H56.9923ZM62.2319 43.58C61.5039 43.58 60.8959 43.408 60.4079 43.064C59.9279 42.728 59.6359 42.28 59.5319 41.72H60.4439C60.5319 42.04 60.7279 42.292 61.0319 42.476C61.3439 42.668 61.7639 42.764 62.2919 42.764C62.9159 42.764 63.3879 42.592 63.7079 42.248C64.0279 41.912 64.1879 41.416 64.1879 40.76V39.452L64.3079 39.476C64.1719 39.94 63.8999 40.312 63.4919 40.592C63.0839 40.864 62.5999 41 62.0399 41C61.5039 41 61.0319 40.872 60.6239 40.616C60.2159 40.352 59.8999 39.988 59.6759 39.524C59.4519 39.06 59.3399 38.52 59.3399 37.904C59.3399 37.28 59.4559 36.732 59.6879 36.26C59.9199 35.788 60.2439 35.424 60.6599 35.168C61.0839 34.904 61.5759 34.772 62.1359 34.772C62.7119 34.772 63.1919 34.912 63.5759 35.192C63.9679 35.472 64.2279 35.872 64.3559 36.392L64.2479 36.404V34.88H65.1479V40.76C65.1479 41.632 64.8879 42.32 64.3679 42.824C63.8479 43.328 63.1359 43.58 62.2319 43.58ZM62.2799 40.172C62.8799 40.172 63.3559 39.964 63.7079 39.548C64.0599 39.132 64.2359 38.568 64.2359 37.856C64.2359 37.16 64.0599 36.612 63.7079 36.212C63.3559 35.804 62.8799 35.6 62.2799 35.6C61.6719 35.6 61.1919 35.804 60.8399 36.212C60.4959 36.62 60.3239 37.18 60.3239 37.892C60.3239 38.588 60.4999 39.144 60.8519 39.56C61.2039 39.968 61.6799 40.172 62.2799 40.172ZM67.0733 41V32.36H68.0333V41H67.0733ZM69.9561 41V34.88H70.9161V41H69.9561ZM69.8841 33.488V32.36H70.9881V33.488H69.8841ZM74.9149 41.12C74.1629 41.12 73.5629 40.948 73.1149 40.604C72.6669 40.252 72.4109 39.756 72.3469 39.116H73.2709C73.3269 39.508 73.4989 39.808 73.7869 40.016C74.0749 40.224 74.4589 40.328 74.9389 40.328C75.3629 40.328 75.6949 40.248 75.9349 40.088C76.1749 39.928 76.2949 39.7 76.2949 39.404C76.2949 39.196 76.2269 39.016 76.0909 38.864C75.9549 38.704 75.6829 38.572 75.2749 38.468L74.2909 38.216C73.7309 38.072 73.3109 37.852 73.0309 37.556C72.7509 37.252 72.6109 36.892 72.6109 36.476C72.6109 35.948 72.8069 35.532 73.1989 35.228C73.5909 34.916 74.1229 34.76 74.7949 34.76C75.4589 34.76 75.9989 34.92 76.4149 35.24C76.8309 35.56 77.0669 36.004 77.1229 36.572H76.1989C76.1429 36.244 75.9909 35.992 75.7429 35.816C75.4949 35.64 75.1669 35.552 74.7589 35.552C74.3669 35.552 74.0629 35.628 73.8469 35.78C73.6309 35.924 73.5229 36.132 73.5229 36.404C73.5229 36.612 73.5989 36.792 73.7509 36.944C73.9109 37.096 74.1749 37.224 74.5429 37.328L75.5029 37.592C76.0709 37.744 76.4989 37.976 76.7869 38.288C77.0749 38.6 77.2189 38.976 77.2189 39.416C77.2189 39.952 77.0149 40.372 76.6069 40.676C76.1989 40.972 75.6349 41.12 74.9149 41.12ZM78.5108 41V32.36H79.4708V41H78.5108ZM82.8908 41V36.992C82.8908 36.528 82.7748 36.18 82.5428 35.948C82.3108 35.716 81.9668 35.6 81.5108 35.6C81.1108 35.6 80.7548 35.688 80.4428 35.864C80.1388 36.04 79.8988 36.284 79.7228 36.596C79.5548 36.908 79.4708 37.272 79.4708 37.688L79.3148 36.236C79.5228 35.78 79.8388 35.42 80.2628 35.156C80.6948 34.892 81.1828 34.76 81.7268 34.76C82.3668 34.76 82.8788 34.944 83.2628 35.312C83.6548 35.672 83.8508 36.148 83.8508 36.74V41H82.8908Z" fill="white"/>
<path d="M92 38.5L89 35.2568L89.7 34.5L92 36.9865L94.3 34.5L95 35.2568L92 38.5Z" fill="white"/>
</svg>
