<svg width="797" height="345" viewBox="0 0 797 345" fill="none" xmlns="http://www.w3.org/2000/svg">
<path fill-rule="evenodd" clip-rule="evenodd" d="M215.377 8.48585C214.345 8.85385 213.05 9.00485 212.5 8.82185C211.034 8.33285 208.823 10.3559 205.277 15.4319C200.388 22.4299 200.504 28.3239 205.649 34.3349L209.297 38.5969L208.078 54.6239C207.407 63.4379 206.468 71.6129 205.991 72.7909C205.514 73.9689 204.389 78.5319 203.491 82.9319C202.593 87.3319 200.815 94.5319 199.54 98.9319C198.265 103.332 196.97 108.339 196.661 110.058C195.958 113.973 188.804 129.141 185.947 132.772C184.772 134.266 182.049 136.387 179.894 137.486L175.978 139.484L171.239 136.841C167.011 134.482 163.691 132.119 153.579 124.265C151.972 123.017 149.05 121.135 147.086 120.082C142.958 117.869 136.352 112.664 130.398 106.932C122.46 99.2899 115.554 92.9149 111.906 89.8599C108.139 86.7059 89.007 64.7729 88.991 63.5909C88.987 63.2289 87.516 61.3569 85.724 59.4319C80.644 53.9749 72.626 43.3189 70.481 39.1729C67.259 32.9469 61.85 26.8409 55.329 22.0689C46.377 15.5169 40.934 15.0579 38.665 20.6639C38.274 21.6319 37.906 21.5769 37.112 20.4319C36.195 19.1089 35.88 19.1239 34.437 20.5659C32.924 22.0789 32.928 22.3919 34.487 24.7719C35.414 26.1869 35.861 27.8479 35.48 28.4649C35.099 29.0809 35.73 30.4639 36.883 31.5379C38.036 32.6109 39.67 34.8269 40.515 36.4609C41.36 38.0949 42.499 39.4319 43.047 39.4319C43.595 39.4319 44.555 40.5569 45.182 41.9319C45.808 43.3069 46.924 44.4319 47.661 44.4319C48.397 44.4319 49 44.7749 49 45.1939C49 45.6139 52.858 49.9389 57.574 54.8049C62.29 59.6719 67.473 65.5159 69.093 67.7929C72.334 72.3479 97.429 99.7639 108.539 110.885C118.528 120.886 153.797 149.198 158.017 150.604C158.815 150.87 158.827 151.756 158.062 153.768C157.478 155.305 157 158.108 157 159.997C157 163.298 156.854 163.432 153.25 163.442C151.188 163.448 143.65 162.117 136.5 160.485C118.997 156.489 99.175 152.317 95.5 151.855C93.85 151.647 88.359 151.034 83.298 150.492C78.236 149.95 70.361 149.019 65.798 148.423C54.001 146.882 40.717 145.538 32 145.003C27.875 144.749 19.886 144.224 14.246 143.836C2.358 143.017 0 144.054 0 150.102C0 155.227 4.363 157.492 13.49 157.105C20.336 156.815 23.966 157.596 27 160.014C27.825 160.672 30.75 161.718 33.5 162.34C36.25 162.962 39.4 163.706 40.5 163.994C41.6 164.282 46.004 164.893 50.286 165.352C55.352 165.896 58.749 166.8 60.008 167.939C62.116 169.847 67.496 171.216 75.869 171.974C78.821 172.242 81.605 172.688 82.054 172.966C82.504 173.243 85.938 173.917 89.686 174.462C97.877 175.655 103.856 176.683 114.5 178.733C118.9 179.58 127.675 181.033 134 181.963C140.325 182.892 146.996 184.026 148.825 184.482C150.653 184.939 152.796 185.064 153.587 184.76C154.378 184.457 155.647 184.724 156.407 185.355C157.168 185.986 158.174 186.433 158.645 186.349C161.424 185.85 163.173 186.756 164.091 189.17L165.132 191.909L166.871 189.603C168.282 187.733 169.168 187.43 171.555 188.002C173.175 188.39 175.06 189.149 175.745 189.688C176.429 190.227 177.94 190.419 179.102 190.115C184.792 188.628 224.389 197.983 235.5 203.44C243.794 207.514 254.562 211.786 259.135 212.818C262.266 213.524 262.805 215.87 262.028 225.406C261.514 231.709 261.395 231.94 257.5 234.188C254.554 235.889 252.539 236.358 249.855 235.97C247.62 235.646 245.107 236.014 243.361 236.92C240.683 238.309 240.363 238.249 238.037 235.923L235.562 233.449L233.305 236.19C231.381 238.527 230.888 238.71 229.968 237.432C229.157 236.306 229.025 237.031 229.437 240.342C230.061 245.353 230.497 246.184 231.345 243.975C231.671 243.126 231.475 242.432 230.91 242.432C230.344 242.432 230.101 242.078 230.368 241.646C230.635 241.213 232.124 240.923 233.677 241.001C235.707 241.103 236.417 241.605 236.206 242.788C235.88 244.614 237.618 245.077 238.204 243.319C238.408 242.707 242.158 241.578 246.538 240.812C259.826 238.485 261.393 238.596 260.777 241.819C260.514 243.192 261.081 245.209 262.11 246.569C263.885 248.913 263.912 248.916 265.418 246.932C266.253 245.832 266.951 243.977 266.968 242.811C266.995 241.034 267.792 240.585 271.885 240.042C274.571 239.685 277.911 239.828 279.307 240.359C281.127 241.051 282.139 240.969 282.884 240.072C283.497 239.333 285.886 238.895 288.712 239.004C291.345 239.105 293.95 238.832 294.5 238.398C295.05 237.964 296.625 237.645 298 237.689C299.375 237.733 300.95 237.64 301.5 237.482C303.512 236.905 311.538 237.486 312.826 238.304C313.688 238.85 315.027 245.767 316.647 258.038C318.019 268.43 319.303 278.018 319.501 279.345C319.698 280.672 320.141 284.722 320.485 288.345C321.264 296.556 322.826 303.25 324.648 306.182C325.782 308.007 326.95 308.432 330.832 308.432C333.464 308.432 336.43 307.838 337.424 307.111C339.79 305.381 339.297 301.199 334.576 282.932C331.14 269.638 327.947 253.203 326.562 241.682C325.931 236.435 325.933 236.432 328.766 236.432C330.325 236.432 332.092 236.924 332.693 237.525C333.413 238.245 334.418 238.295 335.643 237.671C338.851 236.036 349.002 236.273 349.664 237.999C350.173 239.325 350.507 239.33 352.474 238.041C354.131 236.955 355.709 236.798 358.603 237.432C365.305 238.9 370.709 238.918 372.443 237.48C373.574 236.541 374.407 236.439 375.119 237.151C375.813 237.845 377.527 237.868 380.327 237.222C386.221 235.861 396.943 236.873 401.058 239.179C402.951 240.239 405.175 241.148 406 241.198C409.045 241.383 425.797 246.016 427.126 247.039C427.882 247.622 430.855 249.186 433.732 250.515C439.464 253.163 439.957 254.447 437.977 261.574C436.471 266.998 439.905 273.103 446.335 276.432L451.164 278.932L450.825 293.682C450.639 301.794 450.783 308.432 451.145 308.432C452.528 308.432 454.078 301.631 454.672 292.955C455.464 281.399 456.055 279.955 461.035 277.414C463.585 276.113 466.167 273.65 467.825 270.939C470.54 266.498 475.832 263.432 480.783 263.432C483.895 263.432 483.549 261.072 480 258.085C478.35 256.697 477 255.124 477 254.59C477 254.056 478.324 250.666 479.943 247.059C483.714 238.653 483.65 238.674 502.483 239.786C507.974 240.11 513.824 240.696 515.483 241.087C517.142 241.479 518.95 241.852 519.5 241.915C522.603 242.275 528.64 243.797 529.5 244.436C530.05 244.845 534.325 245.728 539 246.398C546.967 247.541 550.99 247.672 560.319 247.092C562.419 246.962 564.444 247.365 564.819 247.988C565.193 248.611 569.775 249.675 575 250.353C580.225 251.03 585.85 251.962 587.5 252.423C589.15 252.883 591.813 253.636 593.418 254.096C597.598 255.293 597.735 257.227 593.758 258.888C591.879 259.674 589.759 261.017 589.048 261.874C588.337 262.731 587.113 263.432 586.328 263.432C581.24 263.432 568.731 273.941 567.7 279.081C566.741 283.862 570.486 290.283 575.483 292.425L579.697 294.231L580.406 307.081C580.797 314.149 581.54 320.359 582.058 320.882C584.007 322.848 585.501 319.288 585.625 312.382C585.938 295.006 585.818 295.709 589.104 291.967C590.811 290.023 592.85 288.432 593.635 288.432C594.42 288.432 595.322 287.757 595.638 286.932C595.955 286.107 596.634 285.432 597.147 285.432C598.652 285.432 604.067 281.233 607.788 277.182C609.683 275.119 611.567 273.432 611.976 273.432C612.386 273.432 614.356 271.889 616.355 270.004C620.384 266.204 619.777 266.257 639.5 268.011C644.45 268.452 649.052 268.709 649.727 268.584C650.401 268.458 652.039 269.067 653.366 269.936C654.694 270.806 658.192 271.952 661.14 272.483C668.683 273.841 669.08 273.958 669.83 275.039C670.627 276.189 683.029 282.584 688 284.409C693.145 286.298 707.838 292.805 711 294.595C711.825 295.063 713.175 295.707 714 296.027C714.825 296.347 717.756 297.694 720.514 299.02C723.272 300.347 726.434 301.432 727.541 301.432C728.649 301.432 731.011 302.763 732.792 304.39C734.573 306.016 737.711 307.649 739.765 308.019C741.819 308.388 744.625 309.304 746 310.054C749.796 312.126 754.359 313.775 755.698 313.561C756.357 313.455 757.385 314.283 757.983 315.4C758.625 316.599 760.081 317.432 761.535 317.432C762.891 317.432 764 317.882 764 318.432C764 318.982 764.695 319.432 765.544 319.432C766.393 319.432 768.305 320.602 769.794 322.031C772.598 324.724 776.493 326.69 781.273 327.824L784.045 328.481L783.773 310.244L783.5 292.007L781 290.845C779.625 290.206 776.925 289.028 775 288.227C773.075 287.427 769.925 286.057 768 285.185C766.075 284.313 763.251 283.325 761.723 282.99C760.196 282.655 756.596 281.323 753.723 280.031C750.851 278.739 746.025 277.142 743 276.483C739.975 275.824 735.7 274.484 733.5 273.507C727.149 270.685 719.834 268.24 715.5 267.492C713.3 267.112 710.6 266.323 709.5 265.739C707.375 264.612 691.199 259.77 684.5 258.257C680.065 257.255 677.84 256.873 670.792 255.903C667.654 255.472 666 254.759 666 253.838C666 253.065 666.845 252.432 667.878 252.432C668.911 252.432 671.275 251.797 673.133 251.021C676.738 249.515 684.147 248.387 706.5 245.944C714.2 245.102 722.3 243.997 724.5 243.488C730.967 241.991 742.773 240.544 753.5 239.934C759 239.621 766.875 238.915 771 238.365C775.125 237.814 779.738 237.361 781.25 237.358C783.881 237.352 784 237.136 784 232.373C784 227.738 783.844 227.426 781.75 227.86C780.513 228.116 775 228.616 769.5 228.97C764 229.324 757.7 229.779 755.5 229.981C753.3 230.184 744.525 230.808 736 231.37C713.746 232.836 679.991 237.511 649.114 243.404C638.699 245.392 637.862 246.735 660 225.926C670.425 216.127 684.488 201.131 695.413 188.166L700.271 182.399L705.386 182.997C726.172 185.429 742.6 189.572 766.5 198.412C786.079 205.653 784 205.74 784 197.675V190.783L772.25 187.092C765.788 185.062 758.25 182.989 755.5 182.485C752.75 181.982 744.709 179.729 737.632 177.479C730.555 175.229 721.555 172.555 717.632 171.537C712.874 170.303 710.393 169.149 710.179 168.072C710.002 167.183 712.477 162.565 715.679 157.809C735.333 128.611 734.597 129.939 739.371 115.067C745.993 94.4389 748.005 85.8639 747.956 78.4939C747.887 68.1879 745.005 62.0369 738.722 58.7879C736.274 57.5219 735.754 57.5349 734.398 58.8909C733.551 59.7379 732.512 60.4319 732.089 60.4319C730.032 60.4319 729.125 66.3389 729.125 79.7399C729.125 94.8008 728.261 101.781 725.142 111.932C722.606 120.186 712.197 143.271 709.362 146.932C708.084 148.582 704.502 153.68 701.403 158.261C696.707 165.201 695.412 166.502 693.634 166.061C682.381 163.271 643.126 156.366 636.786 156.062C635.293 155.991 633.302 155.163 632.361 154.222C630.748 152.609 630.908 152.238 635.19 147.66C637.686 144.991 640.314 141.711 641.031 140.37C641.747 139.029 645.419 133.273 649.191 127.579C657.185 115.509 660 108.09 660 99.0889C660 90.9899 658.061 85.4919 652.799 78.6719C647.865 72.2758 642.076 68.0819 634.233 65.2219C626.636 62.4509 607.355 62.2909 599 64.9309C589.179 68.0329 581.522 70.7529 580.5 71.5029C579.638 72.1349 564.451 80.1559 551.446 86.8459C549.217 87.9929 546.742 89.5059 545.946 90.2079C537.188 97.9369 535.358 99.4059 534.471 99.4179C533.905 99.4259 531.88 100.904 529.971 102.704C525.98 106.466 519.441 111.432 518.48 111.432C517.379 111.432 499.929 127.541 492.366 135.539C488.442 139.688 484.514 144.471 483.636 146.169C482.758 147.866 480.999 150.083 479.727 151.094C476.533 153.632 470.565 162.107 463.606 173.99C462.014 176.708 459.683 180.507 458.426 182.432C455.722 186.573 452.357 195.177 448.062 208.932C446.345 214.432 444.527 219.595 444.023 220.405C443.317 221.539 440.493 221.927 431.726 222.094L420.345 222.31L420.189 210.928C420.033 199.588 420.043 199.538 422.766 197.62C424.27 196.561 426.471 195.393 427.658 195.025C428.845 194.657 431.768 191.785 434.155 188.644C436.542 185.502 439.058 182.572 439.747 182.132C440.436 181.692 441 180.88 441 180.327C441 179.775 442.738 176.759 444.862 173.627C446.985 170.495 449.957 165.492 451.466 162.51C452.974 159.528 456.299 154.292 458.854 150.875C461.409 147.458 465.975 140.974 469 136.466C472.025 131.958 476.323 125.944 478.551 123.101C480.78 120.258 482.873 117.257 483.204 116.432C483.944 114.584 496.964 98.3298 501.891 93.1029C503.876 90.9968 509.212 86.8449 513.75 83.8759C518.288 80.9059 522 78.0309 522 77.4859C522 76.9409 522.71 76.7669 523.578 77.0999C524.572 77.4819 526.146 76.6289 527.828 74.7979C529.298 73.1989 532.3 70.5499 534.5 68.9109C539.736 65.0108 540.586 63.8599 542.503 58.0739C544.424 52.2709 543.799 48.5309 540.368 45.3079C536.252 41.4409 529.442 42.0059 519 47.0789C505.184 53.7919 494.603 55.8769 452 60.2799C447.325 60.7639 433.375 61.0439 421 60.9029C399.877 60.6639 383.602 59.1909 360.5 55.4309C350.175 53.7499 327.904 45.7319 323 41.9299C320.349 39.8749 311.638 36.6319 306.872 35.9269C302.696 35.3079 301.944 35.5189 299.158 38.0869C294.408 42.4649 294.248 45.2039 298.435 50.4709C302.418 55.4829 302.593 56.3299 300.562 60.7809C297.626 67.2179 296 71.7259 296 73.4299C296 75.9089 291.216 86.4319 290.089 86.4319C289.575 86.4319 287.881 87.4899 286.327 88.7819C284.772 90.0749 281.25 92.3769 278.5 93.8969C275.75 95.4179 272.375 97.4309 271 98.3699C269.625 99.3089 266.925 100.844 265 101.782C263.075 102.72 260.825 103.878 260 104.355C259.175 104.833 253.775 107.136 248 109.475C242.225 111.813 234.8 114.923 231.5 116.386C224.591 119.448 213.212 122.978 212.51 122.276C212.248 122.013 215.215 106.079 219.104 86.8649C222.992 67.6519 226.348 50.1319 226.56 47.9319C226.773 45.7319 227.458 39.1779 228.083 33.3659C229.261 22.4009 228.373 13.6919 225.703 10.0409C224.411 8.27385 218.478 7.37985 215.377 8.48585ZM534 48.4319C534 48.9819 533.325 49.4319 532.5 49.4319C531.675 49.4319 531 48.9819 531 48.4319C531 47.8819 531.675 47.4319 532.5 47.4319C533.325 47.4319 534 47.8819 534 48.4319ZM350 70.5129C378.959 74.8349 387.065 75.4879 419 76.0709C451.329 76.6619 463.678 75.9349 492.25 71.7609C495.014 71.3569 495.999 71.5709 495.996 72.5729C495.991 74.6419 492.512 79.9089 487.942 84.7639C485.684 87.1639 483.311 90.0389 482.668 91.1539C480.909 94.2059 474.872 102.922 467.932 112.432C458.578 125.25 452.336 134.701 450.709 138.511C447.99 144.882 425.334 174.71 423.643 174.146C422.467 173.754 420.524 164.234 419.006 151.432C417.129 135.597 414.854 121.943 413.675 119.432C410.344 112.344 400.53 102.002 394 98.7009C388.837 96.0909 371.135 96.1939 364.968 98.8709C347.908 106.273 328.91 127.769 323.572 145.709C321.802 151.658 320.412 154.177 319.437 153.203C318.399 152.164 317.483 133.54 317.655 116.932C317.811 101.788 319.062 94.0799 322.416 87.5949C323.287 85.9099 324 83.8899 324 83.1059C324 82.3219 325.051 79.2619 326.336 76.3059C327.621 73.3499 328.978 70.0899 329.352 69.0599C329.9 67.5489 330.655 67.3149 333.265 67.8429C335.044 68.2039 342.575 69.4049 350 70.5129ZM623.476 81.3929C623.829 81.9649 624.957 82.4319 625.982 82.4319C627.008 82.4319 629.184 83.5569 630.818 84.9319C632.452 86.3069 634.401 87.4319 635.15 87.4319C636.464 87.4319 638 90.2089 639.575 95.4319C641.361 101.356 638.447 113.583 633.3 121.761C629.534 127.745 616.474 141.852 611.896 144.882C608.318 147.25 607.639 147.37 603.588 146.35C595.16 144.228 583.701 149.677 582.346 156.452C581.275 161.809 575.707 164.747 561.494 167.457C550.053 169.638 543.606 168.008 523.734 157.912C522.213 157.139 520.346 156.746 519.585 157.038C516.927 158.058 516.866 155.336 519.449 150.929C523.951 143.247 528.999 130.404 529.015 126.593C529.035 121.898 529.413 121.369 535.989 116.846C539.007 114.77 542.607 111.978 543.988 110.642C547.809 106.947 564.515 96.2259 573.5 91.7029C583.788 86.5239 591.999 83.3659 598.953 81.9139C606.254 80.3889 622.64 80.0409 623.476 81.3929ZM496 89.3729C496 89.8909 495.55 90.5919 495 90.9319C494.45 91.2719 494 90.8479 494 89.9909C494 89.1339 494.45 88.4319 495 88.4319C495.55 88.4319 496 88.8549 496 89.3729ZM297.022 109.99C297.557 111.396 298.234 116.009 298.527 120.24C298.82 124.47 299.27 129.057 299.525 130.432C299.781 131.807 300.231 135.536 300.525 138.719C300.818 141.902 301.496 147.954 302.03 152.168C303.164 161.117 302.721 161.926 296.814 161.69C292.863 161.533 288.694 163.134 284.75 166.326C282.772 167.926 282.366 172.432 284.2 172.432C285.076 172.432 285.102 172.73 284.295 173.537C281.495 176.337 291.698 186.536 302.171 191.406C304.74 192.601 307.096 194.24 307.406 195.049C307.717 195.858 308.88 202.638 309.991 210.116C312.06 224.032 311.818 226.432 308.346 226.432C307.571 226.432 306.674 227.118 306.352 227.958C305.984 228.915 305.344 229.158 304.633 228.61C303.37 227.637 293.493 227.823 290.152 228.884C288.867 229.292 288 229.137 288 228.499C288 227.912 287.523 227.432 286.941 227.432C286.359 227.432 286.204 227.953 286.597 228.589C287.12 229.435 286.058 229.575 282.656 229.108C278.923 228.597 278 228.764 278 229.951C278 231.848 276.109 231.88 275.386 229.995C274.927 228.799 274.243 228.891 271.3 230.544C269.355 231.637 267.606 232.371 267.412 232.177C266.746 231.511 266.664 215.784 267.321 214.721C267.682 214.137 269.543 213.365 271.456 213.006C274.402 212.454 275.337 211.556 277.564 207.143C283.233 195.914 280.727 188.599 269.844 184.603C259.975 180.979 245.079 174.461 229.5 166.948C224.55 164.561 216.797 160.927 212.271 158.872C207.746 156.818 203.329 154.348 202.456 153.383C200.979 151.751 201.132 151.543 204.685 150.371C206.783 149.679 210.3 148.121 212.5 146.908C214.7 145.696 218.3 144.124 220.5 143.416C222.7 142.708 225.4 141.549 226.5 140.84C227.6 140.132 235.25 136.655 243.5 133.114C251.75 129.573 261.65 125.099 265.5 123.172C269.35 121.244 273.625 119.337 275 118.932C278.673 117.852 290.189 111.521 292.472 109.327C295.081 106.82 295.86 106.934 297.022 109.99ZM390.657 118.572C393.293 119.368 394.271 120.599 396.574 126.018C398.345 130.185 399.311 134.198 399.271 137.221C399.237 139.812 400.116 144.857 401.225 148.432C402.789 153.478 403.182 157.169 402.979 164.932C402.583 180.144 402.657 180.81 405.412 186.833C407.126 190.581 409.066 193.089 411.241 194.369C416.86 197.679 418.2 199.555 417.522 203.168C417.187 204.954 416.904 210.079 416.895 214.556L416.877 222.697L408.446 222.013C398.724 221.224 396.032 220.127 377.296 209.319C375.758 208.432 372.25 206.439 369.5 204.891C366.75 203.343 362.413 200.357 359.861 198.254C357.31 196.152 354.803 194.432 354.291 194.432C353.779 194.432 351.591 192.921 349.43 191.074C347.268 189.228 342.913 186.064 339.75 184.044C334.171 180.48 334 180.239 334 175.95C334 161.835 344.829 139.603 358.233 126.199C366.272 118.16 379.218 115.114 390.657 118.572ZM505 139.432C505 139.982 504.55 140.432 504 140.432C503.45 140.432 503 139.982 503 139.432C503 138.882 503.45 138.432 504 138.432C504.55 138.432 505 138.882 505 139.432ZM500 155.232C500 155.672 499.589 156.46 499.086 156.982C498.583 157.504 496.387 163.107 494.206 169.432C488.603 185.681 487.922 187.56 486.409 190.932C485.669 192.582 484.565 196.182 483.954 198.932C482.224 206.722 476.177 221.113 473.513 223.776C471.616 225.673 466.214 224.681 465.457 222.297C464.569 219.498 473.385 195.07 478.22 186.932C478.873 185.832 480.899 182.103 482.722 178.645C486.878 170.761 497.934 154.432 499.115 154.432C499.602 154.432 500 154.792 500 155.232ZM622.683 164.62C622.364 165.417 622.127 165.18 622.079 164.015C622.036 162.961 622.272 162.371 622.604 162.703C622.936 163.035 622.972 163.898 622.683 164.62ZM632.971 170.471C630.6 171.971 629.319 171.506 631.427 169.911C632.487 169.109 633.599 168.697 633.898 168.997C634.197 169.296 633.78 169.959 632.971 170.471ZM628 171.432C628 171.982 627.325 172.432 626.5 172.432C625.675 172.432 625 171.982 625 171.432C625 170.882 625.675 170.432 626.5 170.432C627.325 170.432 628 170.882 628 171.432ZM652 175.355C664.448 176.303 675.329 177.726 682.317 179.321L685.134 179.964L679.459 185.948C665.513 200.653 652.111 214.175 648.749 216.932C646.737 218.582 641.368 223.42 636.816 227.682C632.265 231.944 628.21 235.432 627.805 235.432C627.401 235.432 625.489 236.819 623.558 238.515C621.05 240.717 618.397 241.877 614.273 242.575C607.12 243.786 606.755 243.785 594.5 242.54C582.105 241.282 578.676 240.685 573.086 238.819C569.826 237.73 568.487 237.644 567.963 238.491C567.436 239.345 566.654 239.317 564.905 238.381C563.612 237.689 561.193 237.021 559.528 236.896C555.271 236.576 553.647 236.085 550.9 234.289C548.454 232.69 535 230.262 535 231.42C535 231.77 531.063 232.157 526.25 232.28C521.438 232.403 516.825 232.527 516 232.555C513.908 232.626 509.833 231.837 507.75 230.957C506.788 230.551 505.312 230.482 504.47 230.805C503.629 231.128 499.764 230.724 495.882 229.907C492 229.091 488.414 228.676 487.912 228.986C486.574 229.813 486.705 229.345 490.07 221.286C491.759 217.241 494.415 210.497 495.973 206.299C497.53 202.101 499.396 197.601 500.12 196.299C500.844 194.997 502.144 191.938 503.01 189.501C503.875 187.065 505.033 184.921 505.582 184.738C506.841 184.318 520.054 192.11 521.799 194.301C522.729 195.468 522.909 197.702 522.435 202.157C521.98 206.432 522.269 210.505 523.357 215.157C524.228 218.883 525.067 223.057 525.221 224.432C525.381 225.863 526.141 226.932 527 226.932C528.724 226.932 528.677 221.197 526.886 213.246C526.126 209.869 526.153 206.938 526.985 202.746C528.928 192.948 528.539 193.432 534.478 193.432C545.179 193.432 556.372 198.644 576.5 212.997C581.45 216.527 586.063 219.419 586.75 219.424C587.438 219.428 588 219.831 588 220.318C588 220.805 591.207 223.11 595.127 225.438C601.217 229.056 603.273 229.742 609.248 230.15C614.552 230.511 617.179 230.204 620.121 228.877C623.766 227.234 624 226.865 624 222.765C624 218.953 623.606 218.163 620.882 216.506C619.167 215.464 616.13 214.312 614.132 213.947C604.517 212.193 579.101 196.814 574.69 190.082L572.922 187.384L579.211 184.409C582.67 182.772 586.539 181.433 587.809 181.433C589.153 181.432 589.849 180.997 589.475 180.392C589.065 179.728 589.692 179.568 591.209 179.948C592.794 180.346 594.459 179.858 596.205 178.485C602.623 173.437 616.546 172.655 652 175.355ZM571.683 201.62C571.364 202.417 571.127 202.18 571.079 201.015C571.036 199.961 571.272 199.371 571.604 199.703C571.936 200.035 571.972 200.898 571.683 201.62ZM572 205.432C572 205.982 571.55 206.432 571 206.432C570.45 206.432 570 205.982 570 205.432C570 204.882 570.45 204.432 571 204.432C571.55 204.432 572 204.882 572 205.432ZM335 208.844C345.447 209.935 367.647 219.201 365.323 221.5C364.87 221.948 359.1 222.572 352.5 222.886C337.436 223.604 335.131 223.901 333.73 225.302C332.21 226.822 326.488 226.74 325.259 225.182C324.717 224.495 323.991 219.76 323.646 214.661L323.019 205.39L325.759 206.778C327.267 207.541 331.425 208.471 335 208.844ZM577 210.432C577 210.982 576.55 211.432 576 211.432C575.45 211.432 575 210.982 575 210.432C575 209.882 575.45 209.432 576 209.432C576.55 209.432 577 209.882 577 210.432ZM197.309 226.741C197.034 227.185 195.546 227.272 194.002 226.932C191.794 226.447 190.843 226.808 189.548 228.624C187.981 230.82 187.835 230.844 186.547 229.122C185.691 227.979 184.951 227.703 184.537 228.372C184.177 228.955 184.328 229.432 184.874 229.432C185.419 229.432 186.116 230.221 186.421 231.184C187.13 233.416 190.745 235.708 192.169 234.827C192.879 234.389 192.684 233.835 191.607 233.232C190.7 232.724 190.237 231.857 190.578 231.305C190.953 230.699 192.009 231.02 193.245 232.117C194.995 233.669 195.368 233.714 195.817 232.432C196.105 231.607 196.901 233.407 197.585 236.432C198.269 239.457 198.653 242.109 198.439 242.325C197.489 243.28 194.908 239.892 195.337 238.253C195.598 237.252 195.408 236.184 194.915 235.879C193.649 235.097 188.719 240.258 189.296 241.762C189.572 242.48 188.978 243.003 187.886 243.003C185.633 243.003 185.388 241.604 187.5 240.794C188.325 240.477 189 239.591 189 238.825C189 236.939 187.358 237.056 186.614 238.995C186.284 239.855 185.53 240.26 184.939 239.894C184.348 239.529 184.105 238.6 184.4 237.831C184.696 237.061 184.366 236.432 183.669 236.432C181.861 236.432 180 238.533 180 240.573C180 241.531 179.48 242.635 178.845 243.027C178.156 243.453 177.961 243.303 178.362 242.656C179.688 240.51 176.752 240.235 174.677 242.311C172.824 244.163 172.774 244.432 174.278 244.432C175.525 244.432 176 245.26 176 247.432C176 249.816 176.433 250.432 178.107 250.432C179.569 250.432 180.038 250.891 179.638 251.932C178.876 253.918 179.853 253.819 183.606 251.53C185.627 250.298 187.2 249.945 188.106 250.519C190.208 251.85 191.39 251.606 190.139 250.1C189.323 249.116 189.385 248.288 190.377 246.931C191.669 245.164 191.811 245.178 194.075 247.287C195.37 248.494 197.025 249.253 197.753 248.973C198.48 248.694 199.332 249.133 199.645 249.949C199.985 250.835 201.478 251.419 203.357 251.4C206.327 251.37 206.394 251.288 204.573 249.911C202.425 248.285 202.543 247.974 205.676 247.012C207.18 246.55 208.142 246.864 208.794 248.029C209.914 250.03 212.165 249.024 211.345 246.889C210.941 245.837 211.247 245.589 212.401 246.033C213.295 246.375 214.695 246.1 215.513 245.421C216.653 244.475 217.329 244.461 218.411 245.358C219.491 246.255 219.996 246.248 220.564 245.329C220.98 244.656 220.608 243.619 219.719 242.969C218.847 242.33 217.829 240.599 217.458 239.12C216.734 236.235 214.565 235.518 213.664 237.866C213.303 238.807 212.07 239.169 210.084 238.917C208.418 238.706 206.791 238.961 206.468 239.483C206.146 240.005 206.359 240.432 206.941 240.432C207.523 240.432 208 241.543 208 242.901C208 246.393 206.093 245.282 202.393 239.632C199.953 235.906 199.472 234.388 200.15 232.556C200.714 231.031 201.53 230.432 202.506 230.827C207.583 232.882 207.56 232.88 206.224 231.236C205.171 229.939 205.228 229.558 206.556 229.049C208.82 228.18 209.005 228.256 208.411 229.803C208.122 230.557 208.586 231.443 209.443 231.772C210.299 232.1 211 232.86 211 233.46C211 234.059 210.55 234.272 210 233.932C209.45 233.592 209 234.016 209 234.873C209 235.765 209.855 236.432 211 236.432C212.1 236.432 213 235.788 213 235.002C213 234.215 214.012 233.417 215.25 233.228C216.488 233.039 217.387 232.333 217.25 231.658C217.113 230.984 217.638 230.432 218.418 230.432C219.198 230.432 220.626 230.129 221.592 229.758C222.945 229.239 223.2 229.468 222.705 230.758C222.017 232.551 223.471 233.097 224.5 231.432C224.84 230.882 226.554 230.371 228.309 230.296C230.735 230.192 230.95 230.054 229.206 229.721C227.575 229.408 227.071 228.785 227.46 227.559C227.941 226.043 227.111 225.818 220.536 225.677C216.427 225.59 212.799 225.949 212.473 226.475C211.778 227.601 208 227.776 208 226.682C208 225.666 197.939 225.721 197.309 226.741ZM168.25 228.779C166.463 229.366 165 230.428 165 231.139C165 231.85 164.55 232.432 164 232.432C163.45 232.432 163 231.708 163 230.824C163 229.622 162.389 229.369 160.583 229.822C159.253 230.156 158.016 230.03 157.833 229.543C157.646 229.046 154.206 228.982 150 229.396C145.715 229.818 141.714 229.735 140.667 229.203C139.347 228.533 138.305 228.751 136.946 229.981C135.361 231.415 134.397 231.522 130.946 230.646C127.752 229.835 126.064 229.925 123.374 231.049C121.47 231.845 119.452 232.211 118.889 231.864C118.327 231.516 117.23 232.064 116.452 233.082C115.217 234.698 114.9 234.743 113.943 233.432C113.159 232.358 112.709 232.271 112.359 233.126C112.091 233.782 111.195 234.06 110.368 233.743C109.541 233.426 107.786 233.744 106.467 234.45C104.524 235.49 103.777 235.492 102.534 234.46C101.282 233.421 100.999 233.439 100.997 234.56C100.995 235.502 99.665 235.941 96.747 235.96C93.388 235.982 91.882 236.609 89.545 238.96C87.92 240.595 86.645 242.157 86.712 242.432C86.995 243.598 86.196 243.374 85.02 241.956C83.229 239.798 82.305 240.066 82.514 242.682C82.683 244.785 83.081 244.909 88.597 244.583C91.844 244.39 95.063 243.773 95.75 243.21C96.438 242.647 97.014 242.58 97.032 243.06C97.049 243.539 97.612 243.229 98.282 242.37C100.075 240.07 103.054 239.232 104.669 240.572C105.707 241.434 106.381 241.451 107.196 240.636C107.971 239.861 108.884 239.835 110.223 240.551C111.733 241.359 112.521 241.137 113.937 239.505C116.03 237.092 120 236.717 120 238.932C120 240.904 121.622 240.86 122.386 238.869C122.716 238.009 123.459 237.597 124.037 237.955C124.615 238.312 125.762 238.045 126.586 237.36C127.625 236.498 128.404 236.436 129.127 237.159C130.294 238.326 134 237.685 134 236.315C134 234.871 136.736 235.31 138.456 237.031C139.711 238.286 140.364 238.375 141.484 237.445C142.27 236.793 143.372 236.544 143.933 236.891C144.495 237.238 146.877 237.025 149.227 236.417C157.759 234.212 157.586 234.241 156.122 235.255C155.325 235.806 155.073 236.741 155.525 237.472C156.121 238.437 156.608 238.321 157.587 236.982C158.292 236.018 160.136 235.167 161.685 235.093C163.233 235.018 164.831 234.501 165.235 233.944C165.673 233.34 165.988 233.536 166.016 234.432C166.085 236.638 170.706 239.631 173.276 239.134C175.151 238.772 175.069 238.683 172.75 238.568C171.006 238.482 170 237.872 170 236.901C170 236.058 169.325 235.11 168.5 234.794C166.278 233.941 166.682 232.432 169.133 232.432C170.306 232.432 172.065 233.354 173.042 234.48L174.819 236.529L176.398 234.274C177.954 232.053 178 232.048 179.457 233.976C180.746 235.68 180.94 235.714 180.968 234.241C180.986 233.311 180.57 232.284 180.044 231.959C179.518 231.634 179.343 230.702 179.655 229.889C180.057 228.84 179.753 228.589 178.611 229.028C177.709 229.374 177 229.143 177 228.504C177 227.672 176.457 227.652 175 228.432C173.644 229.158 173 229.169 173 228.467C173 227.292 172.731 227.309 168.25 228.779ZM237.5 233.432C237.84 233.982 238.316 234.432 238.559 234.432C238.802 234.432 239 233.982 239 233.432C239 232.882 238.523 232.432 237.941 232.432C237.359 232.432 237.16 232.882 237.5 233.432ZM145 234.432C145 234.982 144.802 235.432 144.559 235.432C144.316 235.432 143.84 234.982 143.5 234.432C143.16 233.882 143.359 233.432 143.941 233.432C144.523 233.432 145 233.882 145 234.432ZM204.5 237.432C204.84 237.982 205.541 238.432 206.059 238.432C206.577 238.432 207 237.982 207 237.432C207 236.882 206.298 236.432 205.441 236.432C204.584 236.432 204.16 236.882 204.5 237.432ZM95.985 239.682C95.993 238.995 96.713 238.432 97.583 238.432C98.454 238.432 98.979 238.995 98.75 239.682C98.166 241.435 94.752 241.245 94.257 239.432C93.893 238.099 93.966 238.099 94.909 239.432C95.628 240.449 95.974 240.529 95.985 239.682ZM134.51 239.448C134.856 240.007 135.557 240.206 136.069 239.889C137.456 239.032 137.198 238.432 135.441 238.432C134.584 238.432 134.165 238.889 134.51 239.448ZM223.813 239.115C224.534 239.404 225.397 239.368 225.729 239.036C226.061 238.704 225.471 238.468 224.417 238.511C223.252 238.559 223.015 238.796 223.813 239.115ZM158.823 241.766C160.319 242.434 161.398 242.434 162.066 241.766C162.734 241.098 161.987 240.765 159.823 240.765C156.832 240.765 156.754 240.843 158.823 241.766ZM464.298 243.399C464.015 244.481 463.157 245.886 462.392 246.522C460.365 248.204 460.526 245.049 462.571 243.003C464.622 240.953 464.92 241.021 464.298 243.399ZM123.733 243.556C124.412 244.24 125.219 244.547 125.526 244.239C125.834 243.931 125.279 243.372 124.293 242.996C122.868 242.454 122.753 242.568 123.733 243.556ZM143 244.491C143 245.073 143.45 245.272 144 244.932C144.55 244.592 145 244.116 145 243.873C145 243.63 144.55 243.432 144 243.432C143.45 243.432 143 243.909 143 244.491ZM151 244.432C151 244.982 150.325 245.432 149.5 245.432C148.675 245.432 148 245.827 148 246.31C148 246.792 148.675 247.747 149.5 248.432C150.753 249.472 151 249.328 151 247.554C151 246.387 151.45 245.432 152 245.432C152.55 245.432 153 244.982 153 244.432C153 243.882 152.55 243.432 152 243.432C151.45 243.432 151 243.882 151 244.432ZM159.042 245.218C157.967 246.379 157.902 246.899 158.792 247.196C159.456 247.417 160 248.492 160 249.585C160 252.049 163.751 251.801 165.363 249.23C166.747 247.021 165.491 245.78 163.524 247.412C162.242 248.476 162 248.349 162 246.613C162 243.851 160.821 243.295 159.042 245.218ZM199.604 246.161C198.588 247.178 197.749 245.647 198.583 244.298C199.213 243.278 199.449 243.278 199.787 244.294C200.019 244.989 199.936 245.829 199.604 246.161ZM137.459 247.499C136.383 249.24 137.608 249.609 138.98 247.956C139.769 247.006 139.845 246.432 139.181 246.432C138.597 246.432 137.821 246.912 137.459 247.499ZM116 249.432C116 249.982 116.45 250.432 117 250.432C117.55 250.432 118 249.982 118 249.432C118 248.882 117.55 248.432 117 248.432C116.45 248.432 116 248.882 116 249.432ZM153.2 249.632C152.54 250.292 152.036 252.204 152.079 253.882C152.122 255.559 152.376 256.395 152.644 255.738C152.911 255.082 153.716 254.77 154.433 255.045C155.171 255.328 155.971 254.652 156.275 253.489C156.571 252.357 156.35 251.432 155.784 251.432C155.175 251.432 155.263 250.82 156 249.932C157.007 248.718 156.973 248.432 155.822 248.432C155.04 248.432 153.86 248.972 153.2 249.632ZM146.72 252.182C146.501 252.595 146.918 254.057 147.646 255.432C148.375 256.807 148.983 257.482 148.999 256.932C149.015 256.382 149.299 254.92 149.63 253.682C150.067 252.054 149.803 251.432 148.676 251.432C147.819 251.432 146.939 251.769 146.72 252.182ZM130 253.314C130 253.864 130.45 254.592 131 254.932C131.55 255.272 132 255.1 132 254.55C132 254 131.55 253.272 131 252.932C130.45 252.592 130 252.764 130 253.314ZM134.5 253.432C134.16 253.982 134.332 254.432 134.882 254.432C135.432 254.432 136.16 253.982 136.5 253.432C136.84 252.882 136.668 252.432 136.118 252.432C135.568 252.432 134.84 252.882 134.5 253.432ZM201 253.432C201 253.982 201.477 254.432 202.059 254.432C202.641 254.432 202.84 253.982 202.5 253.432C202.16 252.882 201.684 252.432 201.441 252.432C201.198 252.432 201 252.882 201 253.432ZM141.5 254.432C141.84 254.982 142.316 255.432 142.559 255.432C142.802 255.432 143 254.982 143 254.432C143 253.882 142.523 253.432 141.941 253.432C141.359 253.432 141.16 253.882 141.5 254.432ZM143.5 258.432C143.16 258.982 143.359 259.432 143.941 259.432C144.523 259.432 145 258.982 145 258.432C145 257.882 144.802 257.432 144.559 257.432C144.316 257.432 143.84 257.882 143.5 258.432ZM158 260.432C158 260.982 158.45 261.432 159 261.432C159.55 261.432 160 260.982 160 260.432C160 259.882 159.55 259.432 159 259.432C158.45 259.432 158 259.882 158 260.432Z" fill="#B1FD3F"/>
<path fill-rule="evenodd" clip-rule="evenodd" d="M228.297 24.4859C227.265 24.8539 225.97 25.0049 225.42 24.8219C223.954 24.3329 221.743 26.3559 218.197 31.4319C213.308 38.4299 213.424 44.3239 218.569 50.3349L222.217 54.5969L220.998 70.6239C220.327 79.4379 219.388 87.6129 218.911 88.7909C218.434 89.9689 217.309 94.5319 216.411 98.9319C215.513 103.332 213.735 110.532 212.46 114.932C211.185 119.332 209.89 124.339 209.581 126.058C208.878 129.973 201.724 145.141 198.867 148.772C197.692 150.266 194.969 152.387 192.814 153.486L188.898 155.484L184.159 152.841C179.931 150.482 176.611 148.119 166.499 140.265C164.892 139.017 161.97 137.135 160.006 136.082C155.878 133.869 149.272 128.664 143.318 122.932C135.38 115.29 128.474 108.915 124.826 105.86C121.059 102.706 101.927 80.7729 101.911 79.5909C101.907 79.2289 100.436 77.3569 98.6439 75.4319C93.5639 69.9749 85.5459 59.3189 83.4009 55.1729C80.1789 48.9469 74.7699 42.8409 68.2489 38.0689C59.2969 31.5169 53.8539 31.0579 51.5849 36.6639C51.1939 37.6319 50.8259 37.5769 50.0319 36.4319C49.1149 35.1089 48.7999 35.1239 47.3569 36.5659C45.8439 38.0789 45.8479 38.3919 47.4069 40.7719C48.3339 42.1869 48.7809 43.8479 48.3999 44.4649C48.0189 45.0809 48.6499 46.4639 49.8029 47.5379C50.9559 48.6109 52.5899 50.8269 53.4349 52.4609C54.2799 54.0949 55.4189 55.4319 55.9669 55.4319C56.5149 55.4319 57.4749 56.5569 58.1019 57.9319C58.7279 59.3069 59.8439 60.4319 60.5809 60.4319C61.3169 60.4319 61.9199 60.7749 61.9199 61.1939C61.9199 61.6139 65.7779 65.9389 70.4939 70.8049C75.2099 75.6719 80.3929 81.5159 82.0129 83.7929C85.2539 88.3479 110.349 115.764 121.459 126.885C131.448 136.886 166.717 165.198 170.937 166.604C171.735 166.87 171.747 167.756 170.982 169.768C170.398 171.305 169.92 174.108 169.92 175.997C169.92 179.298 169.774 179.432 166.17 179.442C164.108 179.448 156.57 178.117 149.42 176.485C131.917 172.489 112.095 168.317 108.42 167.855C106.77 167.647 101.279 167.034 96.2179 166.492C91.1559 165.95 83.2809 165.019 78.7179 164.423C66.9209 162.882 53.6369 161.538 44.9199 161.003C40.7949 160.749 32.8059 160.224 27.1659 159.836C15.2779 159.017 12.9199 160.054 12.9199 166.102C12.9199 171.227 17.2829 173.492 26.4099 173.105C33.2559 172.815 36.8859 173.596 39.9199 176.014C40.7449 176.672 43.6699 177.718 46.4199 178.34C49.1699 178.962 52.3199 179.706 53.4199 179.994C54.5199 180.282 58.9239 180.893 63.2059 181.352C68.2719 181.896 71.6689 182.8 72.9279 183.939C75.0359 185.847 80.4159 187.216 88.7889 187.974C91.7409 188.242 94.5249 188.688 94.9739 188.966C95.4239 189.243 98.8579 189.917 102.606 190.462C110.797 191.655 116.776 192.683 127.42 194.733C131.82 195.58 140.595 197.033 146.92 197.963C153.245 198.892 159.916 200.026 161.745 200.482C163.573 200.939 165.716 201.064 166.507 200.76C167.298 200.457 168.567 200.724 169.327 201.355C170.088 201.986 171.094 202.433 171.565 202.349C174.344 201.85 176.093 202.756 177.011 205.17L178.052 207.909L179.791 205.603C181.202 203.733 182.088 203.43 184.475 204.002C186.095 204.39 187.98 205.149 188.665 205.688C189.349 206.227 190.86 206.419 192.022 206.115C197.712 204.628 237.309 213.983 248.42 219.44C256.714 223.514 267.482 227.786 272.055 228.818C275.186 229.524 275.725 231.87 274.948 241.406C274.434 247.709 274.315 247.94 270.42 250.188C267.474 251.889 265.459 252.358 262.775 251.97C260.54 251.646 258.027 252.014 256.281 252.92C253.603 254.309 253.283 254.249 250.957 251.923L248.482 249.449L246.225 252.19C244.301 254.527 243.808 254.71 242.888 253.432C242.077 252.306 241.945 253.031 242.357 256.342C242.981 261.353 243.417 262.184 244.265 259.975C244.591 259.126 244.395 258.432 243.83 258.432C243.264 258.432 243.021 258.078 243.288 257.646C243.555 257.213 245.044 256.923 246.597 257.001C248.627 257.103 249.337 257.605 249.126 258.788C248.8 260.614 250.538 261.077 251.124 259.319C251.328 258.707 255.078 257.578 259.458 256.812C272.746 254.485 274.313 254.596 273.697 257.819C273.434 259.192 274.001 261.209 275.03 262.569C276.805 264.913 276.832 264.916 278.338 262.932C279.173 261.832 279.871 259.977 279.888 258.811C279.915 257.034 280.712 256.585 284.805 256.042C287.491 255.685 290.831 255.828 292.227 256.359C294.047 257.051 295.059 256.969 295.804 256.072C296.417 255.333 298.806 254.895 301.632 255.004C304.265 255.105 306.87 254.832 307.42 254.398C307.97 253.964 309.545 253.645 310.92 253.689C312.295 253.733 313.87 253.64 314.42 253.482C316.432 252.905 324.458 253.486 325.746 254.304C326.608 254.85 327.947 261.767 329.567 274.038C330.939 284.43 332.223 294.018 332.421 295.345C332.618 296.672 333.061 300.722 333.405 304.345C334.184 312.556 335.746 319.25 337.568 322.182C338.702 324.007 339.87 324.432 343.752 324.432C346.384 324.432 349.35 323.838 350.344 323.111C352.71 321.381 352.217 317.199 347.496 298.932C344.06 285.638 340.867 269.203 339.482 257.682C338.851 252.435 338.853 252.432 341.686 252.432C343.245 252.432 345.012 252.924 345.613 253.525C346.333 254.245 347.338 254.295 348.563 253.671C351.771 252.036 361.922 252.273 362.584 253.999C363.093 255.325 363.427 255.33 365.394 254.041C367.051 252.955 368.629 252.798 371.523 253.432C378.225 254.9 383.629 254.918 385.363 253.48C386.494 252.541 387.327 252.439 388.039 253.151C388.733 253.845 390.447 253.868 393.247 253.222C399.141 251.861 409.863 252.873 413.978 255.179C415.871 256.239 418.095 257.148 418.92 257.198C421.965 257.383 438.717 262.016 440.046 263.039C440.802 263.622 443.775 265.186 446.652 266.515C452.384 269.163 452.877 270.447 450.897 277.574C449.391 282.998 452.825 289.103 459.255 292.432L464.084 294.932L463.745 309.682C463.559 317.794 463.703 324.432 464.065 324.432C465.448 324.432 466.998 317.631 467.592 308.955C468.384 297.399 468.975 295.955 473.955 293.414C476.505 292.113 479.087 289.65 480.745 286.939C483.46 282.498 488.752 279.432 493.703 279.432C496.815 279.432 496.469 277.072 492.92 274.085C491.27 272.697 489.92 271.124 489.92 270.59C489.92 270.056 491.244 266.666 492.863 263.059C496.634 254.653 496.57 254.674 515.403 255.786C520.894 256.11 526.744 256.696 528.403 257.087C530.062 257.479 531.87 257.852 532.42 257.915C535.523 258.275 541.56 259.797 542.42 260.436C542.97 260.845 547.245 261.728 551.92 262.398C559.887 263.541 563.91 263.672 573.239 263.092C575.339 262.962 577.364 263.365 577.739 263.988C578.113 264.611 582.695 265.675 587.92 266.353C593.145 267.03 598.77 267.962 600.42 268.423C602.07 268.883 604.733 269.636 606.338 270.096C610.518 271.293 610.655 273.227 606.678 274.888C604.799 275.674 602.679 277.017 601.968 277.874C601.257 278.731 600.033 279.432 599.248 279.432C594.16 279.432 581.651 289.941 580.62 295.081C579.661 299.862 583.406 306.283 588.403 308.425L592.617 310.231L593.326 323.081C593.717 330.149 594.46 336.359 594.978 336.882C596.927 338.848 598.421 335.288 598.545 328.382C598.858 311.006 598.738 311.709 602.024 307.967C603.731 306.023 605.77 304.432 606.555 304.432C607.34 304.432 608.242 303.757 608.558 302.932C608.875 302.107 609.554 301.432 610.067 301.432C611.572 301.432 616.987 297.233 620.708 293.182C622.603 291.119 624.487 289.432 624.896 289.432C625.306 289.432 627.276 287.889 629.275 286.004C633.304 282.204 632.697 282.257 652.42 284.011C657.37 284.452 661.972 284.709 662.647 284.584C663.321 284.458 664.959 285.067 666.286 285.936C667.614 286.806 671.112 287.952 674.06 288.483C681.603 289.841 682 289.958 682.75 291.039C683.547 292.189 695.949 298.584 700.92 300.409C706.065 302.298 720.758 308.805 723.92 310.595C724.745 311.063 726.095 311.707 726.92 312.027C727.745 312.347 730.676 313.694 733.434 315.02C736.192 316.347 739.354 317.432 740.461 317.432C741.569 317.432 743.931 318.763 745.712 320.39C747.493 322.016 750.631 323.649 752.685 324.019C754.739 324.388 757.545 325.304 758.92 326.054C762.716 328.126 767.279 329.775 768.618 329.561C769.277 329.455 770.305 330.283 770.903 331.4C771.545 332.599 773.001 333.432 774.455 333.432C775.811 333.432 776.92 333.882 776.92 334.432C776.92 334.982 777.615 335.432 778.464 335.432C779.313 335.432 781.225 336.602 782.714 338.031C785.518 340.724 789.413 342.69 794.193 343.824L796.965 344.481L796.693 326.244L796.42 308.007L793.92 306.845C792.545 306.206 789.845 305.028 787.92 304.227C785.995 303.427 782.845 302.057 780.92 301.185C778.995 300.313 776.171 299.325 774.643 298.99C773.116 298.655 769.516 297.323 766.643 296.031C763.771 294.739 758.945 293.142 755.92 292.483C752.895 291.824 748.62 290.484 746.42 289.507C740.069 286.685 732.754 284.24 728.42 283.492C726.22 283.112 723.52 282.323 722.42 281.739C720.295 280.612 704.119 275.77 697.42 274.257C692.985 273.255 690.76 272.873 683.712 271.903C680.574 271.472 678.92 270.759 678.92 269.838C678.92 269.065 679.765 268.432 680.798 268.432C681.831 268.432 684.195 267.797 686.053 267.021C689.658 265.515 697.067 264.387 719.42 261.944C727.12 261.102 735.22 259.997 737.42 259.488C743.887 257.991 755.693 256.544 766.42 255.934C771.92 255.621 779.795 254.915 783.92 254.365C788.045 253.814 792.658 253.361 794.17 253.358C796.801 253.352 796.92 253.136 796.92 248.373C796.92 243.738 796.764 243.426 794.67 243.86C793.433 244.116 787.92 244.616 782.42 244.97C776.92 245.324 770.62 245.779 768.42 245.981C766.22 246.184 757.445 246.808 748.92 247.37C726.666 248.836 692.911 253.511 662.034 259.404C651.619 261.392 650.782 262.735 672.92 241.926C683.345 232.127 697.408 217.131 708.333 204.166L713.191 198.399L718.306 198.997C739.092 201.429 755.52 205.572 779.42 214.412C798.999 221.653 796.92 221.74 796.92 213.675V206.783L785.17 203.092C778.708 201.062 771.17 198.989 768.42 198.485C765.67 197.982 757.629 195.729 750.552 193.479C743.475 191.229 734.475 188.555 730.552 187.537C725.794 186.303 723.313 185.149 723.099 184.072C722.922 183.183 725.397 178.565 728.599 173.809C748.253 144.611 747.517 145.939 752.291 131.067C758.913 110.439 760.925 101.864 760.876 94.4939C760.807 84.1879 757.925 78.0369 751.642 74.7879C749.194 73.5219 748.674 73.5349 747.318 74.8909C746.471 75.7379 745.432 76.4319 745.009 76.4319C742.952 76.4319 742.045 82.3389 742.045 95.7399C742.045 110.801 741.181 117.781 738.062 127.932C735.526 136.186 725.117 159.271 722.282 162.932C721.004 164.582 717.422 169.68 714.323 174.261C709.627 181.201 708.332 182.502 706.554 182.061C695.301 179.271 656.046 172.366 649.706 172.062C648.213 171.991 646.222 171.163 645.281 170.222C643.668 168.609 643.828 168.238 648.11 163.66C650.606 160.991 653.234 157.711 653.951 156.37C654.667 155.029 658.339 149.273 662.111 143.579C670.105 131.509 672.92 124.09 672.92 115.089C672.92 106.99 670.981 101.492 665.719 94.6719C660.785 88.2759 654.996 84.0819 647.153 81.2219C639.556 78.4509 620.275 78.2909 611.92 80.9309C602.099 84.0329 594.442 86.7529 593.42 87.5029C592.558 88.1349 577.371 96.1559 564.366 102.846C562.137 103.993 559.662 105.506 558.866 106.208C550.108 113.937 548.278 115.406 547.391 115.418C546.825 115.426 544.8 116.904 542.891 118.704C538.9 122.466 532.361 127.432 531.4 127.432C530.299 127.432 512.849 143.541 505.286 151.539C501.362 155.688 497.434 160.471 496.556 162.169C495.678 163.866 493.919 166.083 492.647 167.094C489.453 169.632 483.485 178.107 476.526 189.99C474.934 192.708 472.603 196.507 471.346 198.432C468.642 202.573 465.277 211.177 460.982 224.932C459.265 230.432 457.447 235.595 456.943 236.405C456.237 237.539 453.413 237.927 444.646 238.094L433.265 238.31L433.109 226.928C432.953 215.588 432.963 215.538 435.686 213.62C437.19 212.561 439.391 211.393 440.578 211.025C441.765 210.657 444.688 207.785 447.075 204.644C449.462 201.502 451.978 198.572 452.667 198.132C453.356 197.692 453.92 196.88 453.92 196.327C453.92 195.775 455.658 192.759 457.782 189.627C459.905 186.495 462.877 181.492 464.386 178.51C465.894 175.528 469.219 170.292 471.774 166.875C474.329 163.458 478.895 156.974 481.92 152.466C484.945 147.958 489.243 141.944 491.471 139.101C493.7 136.258 495.793 133.257 496.124 132.432C496.864 130.584 509.884 114.33 514.811 109.103C516.796 106.997 522.132 102.845 526.67 99.8759C531.208 96.9059 534.92 94.0309 534.92 93.4859C534.92 92.9409 535.63 92.7669 536.498 93.0999C537.492 93.4819 539.066 92.6289 540.748 90.7979C542.218 89.1989 545.22 86.5499 547.42 84.9109C552.656 81.0109 553.506 79.8599 555.423 74.0739C557.344 68.2709 556.719 64.5309 553.288 61.3079C549.172 57.4409 542.362 58.0059 531.92 63.0789C518.104 69.7919 507.523 71.8769 464.92 76.2799C460.245 76.7639 446.295 77.0439 433.92 76.9029C412.797 76.6639 396.522 75.1909 373.42 71.4309C363.095 69.7499 340.824 61.7319 335.92 57.9299C333.269 55.8749 324.558 52.6319 319.792 51.9269C315.616 51.3079 314.864 51.5189 312.078 54.0869C307.328 58.4649 307.168 61.2039 311.355 66.4709C315.338 71.4829 315.513 72.3299 313.482 76.7809C310.546 83.2179 308.92 87.7259 308.92 89.4299C308.92 91.9089 304.136 102.432 303.009 102.432C302.495 102.432 300.801 103.49 299.247 104.782C297.692 106.075 294.17 108.377 291.42 109.897C288.67 111.418 285.295 113.431 283.92 114.37C282.545 115.309 279.845 116.844 277.92 117.782C275.995 118.72 273.745 119.878 272.92 120.355C272.095 120.833 266.695 123.136 260.92 125.475C255.145 127.813 247.72 130.923 244.42 132.386C237.511 135.448 226.132 138.978 225.43 138.276C225.168 138.013 228.135 122.079 232.024 102.865C235.912 83.6519 239.268 66.1319 239.48 63.9319C239.693 61.7319 240.378 55.1779 241.003 49.3659C242.181 38.4009 241.293 29.6919 238.623 26.0409C237.331 24.2739 231.398 23.3799 228.297 24.4859ZM546.92 64.4319C546.92 64.9819 546.245 65.4319 545.42 65.4319C544.595 65.4319 543.92 64.9819 543.92 64.4319C543.92 63.8819 544.595 63.4319 545.42 63.4319C546.245 63.4319 546.92 63.8819 546.92 64.4319ZM362.92 86.5129C391.879 90.8349 399.985 91.4879 431.92 92.0709C464.249 92.6619 476.598 91.9349 505.17 87.7609C507.934 87.3569 508.919 87.5709 508.916 88.5729C508.911 90.6419 505.432 95.9089 500.862 100.764C498.604 103.164 496.231 106.039 495.588 107.154C493.829 110.206 487.792 118.922 480.852 128.432C471.498 141.25 465.256 150.701 463.629 154.511C460.91 160.882 438.254 190.71 436.563 190.146C435.387 189.754 433.444 180.234 431.926 167.432C430.049 151.597 427.774 137.943 426.595 135.432C423.264 128.344 413.45 118.002 406.92 114.701C401.757 112.091 384.055 112.194 377.888 114.871C360.828 122.273 341.83 143.769 336.492 161.709C334.722 167.658 333.332 170.177 332.357 169.203C331.319 168.164 330.403 149.54 330.575 132.932C330.731 117.788 331.982 110.08 335.336 103.595C336.207 101.91 336.92 99.8899 336.92 99.1059C336.92 98.3219 337.971 95.2619 339.256 92.3059C340.541 89.3499 341.898 86.0899 342.272 85.0599C342.82 83.5489 343.575 83.3149 346.185 83.8429C347.964 84.2039 355.495 85.4049 362.92 86.5129ZM636.396 97.3929C636.749 97.9649 637.877 98.4319 638.902 98.4319C639.928 98.4319 642.104 99.5569 643.738 100.932C645.372 102.307 647.321 103.432 648.07 103.432C649.384 103.432 650.92 106.209 652.495 111.432C654.281 117.356 651.367 129.583 646.22 137.761C642.454 143.745 629.394 157.852 624.816 160.882C621.238 163.25 620.559 163.37 616.508 162.35C608.08 160.228 596.621 165.677 595.266 172.452C594.195 177.809 588.627 180.747 574.414 183.457C562.973 185.638 556.526 184.008 536.654 173.912C535.133 173.139 533.266 172.746 532.505 173.038C529.847 174.058 529.786 171.336 532.369 166.929C536.871 159.247 541.919 146.404 541.935 142.593C541.955 137.898 542.333 137.369 548.909 132.846C551.927 130.77 555.527 127.978 556.908 126.642C560.729 122.947 577.435 112.226 586.42 107.703C596.708 102.524 604.919 99.3659 611.873 97.9139C619.174 96.3889 635.56 96.0409 636.396 97.3929ZM508.92 105.373C508.92 105.891 508.47 106.592 507.92 106.932C507.37 107.272 506.92 106.848 506.92 105.991C506.92 105.134 507.37 104.432 507.92 104.432C508.47 104.432 508.92 104.855 508.92 105.373ZM309.942 125.99C310.477 127.396 311.154 132.009 311.447 136.24C311.74 140.47 312.19 145.057 312.445 146.432C312.701 147.807 313.151 151.536 313.445 154.719C313.738 157.902 314.416 163.954 314.95 168.168C316.084 177.117 315.641 177.926 309.734 177.69C305.783 177.533 301.614 179.134 297.67 182.326C295.692 183.926 295.286 188.432 297.12 188.432C297.996 188.432 298.022 188.73 297.215 189.537C294.415 192.337 304.618 202.536 315.091 207.406C317.66 208.601 320.016 210.24 320.326 211.049C320.637 211.858 321.8 218.638 322.911 226.116C324.98 240.032 324.738 242.432 321.266 242.432C320.491 242.432 319.594 243.118 319.272 243.958C318.904 244.915 318.264 245.158 317.553 244.61C316.29 243.637 306.413 243.823 303.072 244.884C301.787 245.292 300.92 245.137 300.92 244.499C300.92 243.912 300.443 243.432 299.861 243.432C299.279 243.432 299.124 243.953 299.517 244.589C300.04 245.435 298.978 245.575 295.576 245.108C291.843 244.597 290.92 244.764 290.92 245.951C290.92 247.848 289.029 247.88 288.306 245.995C287.847 244.799 287.163 244.891 284.22 246.544C282.275 247.637 280.526 248.371 280.332 248.177C279.666 247.511 279.584 231.784 280.241 230.721C280.602 230.137 282.463 229.365 284.376 229.006C287.322 228.454 288.257 227.556 290.484 223.143C296.153 211.914 293.647 204.599 282.764 200.603C272.895 196.979 257.999 190.461 242.42 182.948C237.47 180.561 229.717 176.927 225.191 174.872C220.666 172.818 216.249 170.348 215.376 169.383C213.899 167.751 214.052 167.543 217.605 166.371C219.703 165.679 223.22 164.121 225.42 162.908C227.62 161.696 231.22 160.124 233.42 159.416C235.62 158.708 238.32 157.549 239.42 156.84C240.52 156.132 248.17 152.655 256.42 149.114C264.67 145.573 274.57 141.099 278.42 139.172C282.27 137.244 286.545 135.337 287.92 134.932C291.593 133.852 303.109 127.521 305.392 125.327C308.001 122.82 308.78 122.934 309.942 125.99ZM403.577 134.572C406.213 135.368 407.191 136.599 409.494 142.018C411.265 146.185 412.231 150.198 412.191 153.221C412.157 155.812 413.036 160.857 414.145 164.432C415.709 169.478 416.102 173.169 415.899 180.932C415.503 196.144 415.577 196.81 418.332 202.833C420.046 206.581 421.986 209.089 424.161 210.369C429.78 213.679 431.12 215.555 430.442 219.168C430.107 220.954 429.824 226.079 429.815 230.556L429.797 238.697L421.366 238.013C411.644 237.224 408.952 236.127 390.216 225.319C388.678 224.432 385.17 222.439 382.42 220.891C379.67 219.343 375.333 216.357 372.781 214.254C370.23 212.152 367.723 210.432 367.211 210.432C366.699 210.432 364.511 208.921 362.35 207.074C360.188 205.228 355.833 202.064 352.67 200.044C347.091 196.48 346.92 196.239 346.92 191.95C346.92 177.835 357.749 155.603 371.153 142.199C379.192 134.16 392.138 131.114 403.577 134.572ZM517.92 155.432C517.92 155.982 517.47 156.432 516.92 156.432C516.37 156.432 515.92 155.982 515.92 155.432C515.92 154.882 516.37 154.432 516.92 154.432C517.47 154.432 517.92 154.882 517.92 155.432ZM512.92 171.232C512.92 171.672 512.509 172.46 512.006 172.982C511.503 173.504 509.307 179.107 507.126 185.432C501.523 201.681 500.842 203.56 499.329 206.932C498.589 208.582 497.485 212.182 496.874 214.932C495.144 222.722 489.097 237.113 486.433 239.776C484.536 241.673 479.134 240.681 478.377 238.297C477.489 235.498 486.305 211.07 491.14 202.932C491.793 201.832 493.819 198.103 495.642 194.645C499.798 186.761 510.854 170.432 512.035 170.432C512.522 170.432 512.92 170.792 512.92 171.232ZM635.603 180.62C635.284 181.417 635.047 181.18 634.999 180.015C634.956 178.961 635.192 178.371 635.524 178.703C635.856 179.035 635.892 179.898 635.603 180.62ZM645.891 186.471C643.52 187.971 642.239 187.506 644.347 185.911C645.407 185.109 646.519 184.697 646.818 184.997C647.117 185.296 646.7 185.959 645.891 186.471ZM640.92 187.432C640.92 187.982 640.245 188.432 639.42 188.432C638.595 188.432 637.92 187.982 637.92 187.432C637.92 186.882 638.595 186.432 639.42 186.432C640.245 186.432 640.92 186.882 640.92 187.432ZM664.92 191.355C677.368 192.303 688.249 193.726 695.237 195.321L698.054 195.964L692.379 201.948C678.433 216.653 665.031 230.175 661.669 232.932C659.657 234.582 654.288 239.42 649.736 243.682C645.185 247.944 641.13 251.432 640.725 251.432C640.321 251.432 638.409 252.819 636.478 254.515C633.97 256.717 631.317 257.877 627.193 258.575C620.04 259.786 619.675 259.785 607.42 258.54C595.025 257.282 591.596 256.685 586.006 254.819C582.746 253.73 581.407 253.644 580.883 254.491C580.356 255.345 579.574 255.317 577.825 254.381C576.532 253.689 574.113 253.021 572.448 252.896C568.191 252.576 566.567 252.085 563.82 250.289C561.374 248.69 547.92 246.262 547.92 247.42C547.92 247.77 543.983 248.157 539.17 248.28C534.358 248.403 529.745 248.527 528.92 248.555C526.828 248.626 522.753 247.837 520.67 246.957C519.708 246.551 518.232 246.482 517.39 246.805C516.549 247.128 512.684 246.724 508.802 245.907C504.92 245.091 501.334 244.676 500.832 244.986C499.494 245.813 499.625 245.345 502.99 237.286C504.679 233.241 507.335 226.497 508.893 222.299C510.45 218.101 512.316 213.601 513.04 212.299C513.764 210.997 515.064 207.938 515.93 205.501C516.795 203.065 517.953 200.921 518.502 200.738C519.761 200.318 532.974 208.11 534.719 210.301C535.649 211.468 535.829 213.702 535.355 218.157C534.9 222.432 535.189 226.505 536.277 231.157C537.148 234.883 537.987 239.057 538.141 240.432C538.301 241.863 539.061 242.932 539.92 242.932C541.644 242.932 541.597 237.197 539.806 229.246C539.046 225.869 539.073 222.938 539.905 218.746C541.848 208.948 541.459 209.432 547.398 209.432C558.099 209.432 569.292 214.644 589.42 228.997C594.37 232.527 598.983 235.419 599.67 235.424C600.358 235.428 600.92 235.831 600.92 236.318C600.92 236.805 604.127 239.11 608.047 241.438C614.137 245.056 616.193 245.742 622.168 246.15C627.472 246.511 630.099 246.204 633.041 244.877C636.686 243.234 636.92 242.865 636.92 238.765C636.92 234.953 636.526 234.163 633.802 232.506C632.087 231.464 629.05 230.312 627.052 229.947C617.437 228.193 592.021 212.814 587.61 206.082L585.842 203.384L592.131 200.409C595.59 198.772 599.459 197.433 600.729 197.433C602.073 197.432 602.769 196.997 602.395 196.392C601.985 195.728 602.612 195.568 604.129 195.948C605.714 196.346 607.379 195.858 609.125 194.485C615.543 189.437 629.466 188.655 664.92 191.355ZM584.603 217.62C584.284 218.417 584.047 218.18 583.999 217.015C583.956 215.961 584.192 215.371 584.524 215.703C584.856 216.035 584.892 216.898 584.603 217.62ZM584.92 221.432C584.92 221.982 584.47 222.432 583.92 222.432C583.37 222.432 582.92 221.982 582.92 221.432C582.92 220.882 583.37 220.432 583.92 220.432C584.47 220.432 584.92 220.882 584.92 221.432ZM347.92 224.844C358.367 225.935 380.567 235.201 378.243 237.5C377.79 237.948 372.02 238.572 365.42 238.886C350.356 239.604 348.051 239.901 346.65 241.302C345.13 242.822 339.408 242.74 338.179 241.182C337.637 240.495 336.911 235.76 336.566 230.661L335.939 221.39L338.679 222.778C340.187 223.541 344.345 224.471 347.92 224.844ZM589.92 226.432C589.92 226.982 589.47 227.432 588.92 227.432C588.37 227.432 587.92 226.982 587.92 226.432C587.92 225.882 588.37 225.432 588.92 225.432C589.47 225.432 589.92 225.882 589.92 226.432ZM210.229 242.741C209.954 243.185 208.466 243.272 206.922 242.932C204.714 242.447 203.763 242.808 202.468 244.624C200.901 246.82 200.755 246.844 199.467 245.122C198.611 243.979 197.871 243.703 197.457 244.372C197.097 244.955 197.248 245.432 197.794 245.432C198.339 245.432 199.036 246.221 199.341 247.184C200.05 249.416 203.665 251.708 205.089 250.827C205.799 250.389 205.604 249.835 204.527 249.232C203.62 248.724 203.157 247.857 203.498 247.305C203.873 246.699 204.929 247.02 206.165 248.117C207.915 249.669 208.288 249.714 208.737 248.432C209.025 247.607 209.821 249.407 210.505 252.432C211.189 255.457 211.573 258.109 211.359 258.325C210.409 259.28 207.828 255.892 208.257 254.253C208.518 253.252 208.328 252.184 207.835 251.879C206.569 251.097 201.639 256.258 202.216 257.762C202.492 258.48 201.898 259.003 200.806 259.003C198.553 259.003 198.308 257.604 200.42 256.794C201.245 256.477 201.92 255.591 201.92 254.825C201.92 252.939 200.278 253.056 199.534 254.995C199.204 255.855 198.45 256.26 197.859 255.894C197.268 255.529 197.025 254.6 197.32 253.831C197.616 253.061 197.286 252.432 196.589 252.432C194.781 252.432 192.92 254.533 192.92 256.573C192.92 257.531 192.4 258.635 191.765 259.027C191.076 259.453 190.881 259.303 191.282 258.656C192.608 256.51 189.672 256.235 187.597 258.311C185.744 260.163 185.694 260.432 187.198 260.432C188.445 260.432 188.92 261.26 188.92 263.432C188.92 265.816 189.353 266.432 191.027 266.432C192.489 266.432 192.958 266.891 192.558 267.932C191.796 269.918 192.773 269.819 196.526 267.53C198.547 266.298 200.12 265.945 201.026 266.519C203.128 267.85 204.31 267.606 203.059 266.1C202.243 265.116 202.305 264.288 203.297 262.931C204.589 261.164 204.731 261.178 206.995 263.287C208.29 264.494 209.945 265.253 210.673 264.973C211.4 264.694 212.252 265.133 212.565 265.949C212.905 266.835 214.398 267.419 216.277 267.4C219.247 267.37 219.314 267.288 217.493 265.911C215.345 264.285 215.463 263.974 218.596 263.012C220.1 262.55 221.062 262.864 221.714 264.029C222.834 266.03 225.085 265.024 224.265 262.889C223.861 261.837 224.167 261.589 225.321 262.033C226.215 262.375 227.615 262.1 228.433 261.421C229.573 260.475 230.249 260.461 231.331 261.358C232.411 262.255 232.916 262.248 233.484 261.329C233.9 260.656 233.528 259.619 232.639 258.969C231.767 258.33 230.749 256.599 230.378 255.12C229.654 252.235 227.485 251.518 226.584 253.866C226.223 254.807 224.99 255.169 223.004 254.917C221.338 254.706 219.711 254.961 219.388 255.483C219.066 256.005 219.279 256.432 219.861 256.432C220.443 256.432 220.92 257.543 220.92 258.901C220.92 262.393 219.013 261.282 215.313 255.632C212.873 251.906 212.392 250.388 213.07 248.556C213.634 247.031 214.45 246.432 215.426 246.827C220.503 248.882 220.48 248.88 219.144 247.236C218.091 245.939 218.148 245.558 219.476 245.049C221.74 244.18 221.925 244.256 221.331 245.803C221.042 246.557 221.506 247.443 222.363 247.772C223.219 248.1 223.92 248.86 223.92 249.46C223.92 250.059 223.47 250.272 222.92 249.932C222.37 249.592 221.92 250.016 221.92 250.873C221.92 251.765 222.775 252.432 223.92 252.432C225.02 252.432 225.92 251.788 225.92 251.002C225.92 250.215 226.932 249.417 228.17 249.228C229.408 249.039 230.307 248.333 230.17 247.658C230.033 246.984 230.558 246.432 231.338 246.432C232.118 246.432 233.546 246.129 234.512 245.758C235.865 245.239 236.12 245.468 235.625 246.758C234.937 248.551 236.391 249.097 237.42 247.432C237.76 246.882 239.474 246.371 241.229 246.296C243.655 246.192 243.87 246.054 242.126 245.721C240.495 245.408 239.991 244.785 240.38 243.559C240.861 242.043 240.031 241.818 233.456 241.677C229.347 241.59 225.719 241.949 225.393 242.475C224.698 243.601 220.92 243.776 220.92 242.682C220.92 241.666 210.859 241.721 210.229 242.741ZM181.17 244.779C179.383 245.366 177.92 246.428 177.92 247.139C177.92 247.85 177.47 248.432 176.92 248.432C176.37 248.432 175.92 247.708 175.92 246.824C175.92 245.622 175.309 245.369 173.503 245.822C172.173 246.156 170.936 246.03 170.753 245.543C170.566 245.046 167.126 244.982 162.92 245.396C158.635 245.818 154.634 245.735 153.587 245.203C152.267 244.533 151.225 244.751 149.866 245.981C148.281 247.415 147.317 247.522 143.866 246.646C140.672 245.835 138.984 245.925 136.294 247.049C134.39 247.845 132.372 248.211 131.809 247.864C131.247 247.516 130.15 248.064 129.372 249.082C128.137 250.698 127.82 250.743 126.863 249.432C126.079 248.358 125.629 248.271 125.279 249.126C125.011 249.782 124.115 250.06 123.288 249.743C122.461 249.426 120.706 249.744 119.387 250.45C117.444 251.49 116.697 251.492 115.454 250.46C114.202 249.421 113.919 249.439 113.917 250.56C113.915 251.502 112.585 251.941 109.667 251.96C106.308 251.982 104.802 252.609 102.465 254.96C100.84 256.595 99.5649 258.157 99.6319 258.432C99.9149 259.598 99.1159 259.374 97.9399 257.956C96.1489 255.798 95.2249 256.066 95.4339 258.682C95.6029 260.785 96.0009 260.909 101.517 260.583C104.764 260.39 107.983 259.773 108.67 259.21C109.358 258.647 109.934 258.58 109.952 259.06C109.969 259.539 110.532 259.229 111.202 258.37C112.995 256.07 115.974 255.232 117.589 256.572C118.627 257.434 119.301 257.451 120.116 256.636C120.891 255.861 121.804 255.835 123.143 256.551C124.653 257.359 125.441 257.137 126.857 255.505C128.95 253.092 132.92 252.717 132.92 254.932C132.92 256.904 134.542 256.86 135.306 254.869C135.636 254.009 136.379 253.597 136.957 253.955C137.535 254.312 138.682 254.045 139.506 253.36C140.545 252.498 141.324 252.436 142.047 253.159C143.214 254.326 146.92 253.685 146.92 252.315C146.92 250.871 149.656 251.31 151.376 253.031C152.631 254.286 153.284 254.375 154.404 253.445C155.19 252.793 156.292 252.544 156.853 252.891C157.415 253.238 159.797 253.025 162.147 252.417C170.679 250.212 170.506 250.241 169.042 251.255C168.245 251.806 167.993 252.741 168.445 253.472C169.041 254.437 169.528 254.321 170.507 252.982C171.212 252.018 173.056 251.167 174.605 251.093C176.153 251.018 177.751 250.501 178.155 249.944C178.593 249.34 178.908 249.536 178.936 250.432C179.005 252.638 183.626 255.631 186.196 255.134C188.071 254.772 187.989 254.683 185.67 254.568C183.926 254.482 182.92 253.872 182.92 252.901C182.92 252.058 182.245 251.11 181.42 250.794C179.198 249.941 179.602 248.432 182.053 248.432C183.226 248.432 184.985 249.354 185.962 250.48L187.739 252.529L189.318 250.274C190.874 248.053 190.92 248.048 192.377 249.976C193.666 251.68 193.86 251.714 193.888 250.241C193.906 249.311 193.49 248.284 192.964 247.959C192.438 247.634 192.263 246.702 192.575 245.889C192.977 244.84 192.673 244.589 191.531 245.028C190.629 245.374 189.92 245.143 189.92 244.504C189.92 243.672 189.377 243.652 187.92 244.432C186.564 245.158 185.92 245.169 185.92 244.467C185.92 243.292 185.651 243.309 181.17 244.779ZM250.42 249.432C250.76 249.982 251.236 250.432 251.479 250.432C251.722 250.432 251.92 249.982 251.92 249.432C251.92 248.882 251.443 248.432 250.861 248.432C250.279 248.432 250.08 248.882 250.42 249.432ZM157.92 250.432C157.92 250.982 157.722 251.432 157.479 251.432C157.236 251.432 156.76 250.982 156.42 250.432C156.08 249.882 156.279 249.432 156.861 249.432C157.443 249.432 157.92 249.882 157.92 250.432ZM217.42 253.432C217.76 253.982 218.461 254.432 218.979 254.432C219.497 254.432 219.92 253.982 219.92 253.432C219.92 252.882 219.218 252.432 218.361 252.432C217.504 252.432 217.08 252.882 217.42 253.432ZM108.905 255.682C108.913 254.995 109.633 254.432 110.503 254.432C111.374 254.432 111.899 254.995 111.67 255.682C111.086 257.435 107.672 257.245 107.177 255.432C106.813 254.099 106.886 254.099 107.829 255.432C108.548 256.449 108.894 256.529 108.905 255.682ZM147.43 255.448C147.776 256.007 148.477 256.206 148.989 255.889C150.376 255.032 150.118 254.432 148.361 254.432C147.504 254.432 147.085 254.889 147.43 255.448ZM236.733 255.115C237.454 255.404 238.317 255.368 238.649 255.036C238.981 254.704 238.391 254.468 237.337 254.511C236.172 254.559 235.935 254.796 236.733 255.115ZM171.743 257.766C173.239 258.434 174.318 258.434 174.986 257.766C175.654 257.098 174.907 256.765 172.743 256.765C169.752 256.765 169.674 256.843 171.743 257.766ZM477.218 259.399C476.935 260.481 476.077 261.886 475.312 262.522C473.285 264.204 473.446 261.049 475.491 259.003C477.542 256.953 477.84 257.021 477.218 259.399ZM136.653 259.556C137.332 260.24 138.139 260.547 138.446 260.239C138.754 259.931 138.199 259.372 137.213 258.996C135.788 258.454 135.673 258.568 136.653 259.556ZM155.92 260.491C155.92 261.073 156.37 261.272 156.92 260.932C157.47 260.592 157.92 260.116 157.92 259.873C157.92 259.63 157.47 259.432 156.92 259.432C156.37 259.432 155.92 259.909 155.92 260.491ZM163.92 260.432C163.92 260.982 163.245 261.432 162.42 261.432C161.595 261.432 160.92 261.827 160.92 262.31C160.92 262.792 161.595 263.747 162.42 264.432C163.673 265.472 163.92 265.328 163.92 263.554C163.92 262.387 164.37 261.432 164.92 261.432C165.47 261.432 165.92 260.982 165.92 260.432C165.92 259.882 165.47 259.432 164.92 259.432C164.37 259.432 163.92 259.882 163.92 260.432ZM171.962 261.218C170.887 262.379 170.822 262.899 171.712 263.196C172.376 263.417 172.92 264.492 172.92 265.585C172.92 268.049 176.671 267.801 178.283 265.23C179.667 263.021 178.411 261.78 176.444 263.412C175.162 264.476 174.92 264.349 174.92 262.613C174.92 259.851 173.741 259.295 171.962 261.218ZM212.524 262.161C211.508 263.178 210.669 261.647 211.503 260.298C212.133 259.278 212.369 259.278 212.707 260.294C212.939 260.989 212.856 261.829 212.524 262.161ZM150.379 263.499C149.303 265.24 150.528 265.609 151.9 263.956C152.689 263.006 152.765 262.432 152.101 262.432C151.517 262.432 150.741 262.912 150.379 263.499ZM128.92 265.432C128.92 265.982 129.37 266.432 129.92 266.432C130.47 266.432 130.92 265.982 130.92 265.432C130.92 264.882 130.47 264.432 129.92 264.432C129.37 264.432 128.92 264.882 128.92 265.432ZM166.12 265.632C165.46 266.292 164.956 268.204 164.999 269.882C165.042 271.559 165.296 272.395 165.564 271.738C165.831 271.082 166.636 270.77 167.353 271.045C168.091 271.328 168.891 270.652 169.195 269.489C169.491 268.357 169.27 267.432 168.704 267.432C168.095 267.432 168.183 266.82 168.92 265.932C169.927 264.718 169.893 264.432 168.742 264.432C167.96 264.432 166.78 264.972 166.12 265.632ZM159.64 268.182C159.421 268.595 159.838 270.057 160.566 271.432C161.295 272.807 161.903 273.482 161.919 272.932C161.935 272.382 162.219 270.92 162.55 269.682C162.987 268.054 162.723 267.432 161.596 267.432C160.739 267.432 159.859 267.769 159.64 268.182ZM142.92 269.314C142.92 269.864 143.37 270.592 143.92 270.932C144.47 271.272 144.92 271.1 144.92 270.55C144.92 270 144.47 269.272 143.92 268.932C143.37 268.592 142.92 268.764 142.92 269.314ZM147.42 269.432C147.08 269.982 147.252 270.432 147.802 270.432C148.352 270.432 149.08 269.982 149.42 269.432C149.76 268.882 149.588 268.432 149.038 268.432C148.488 268.432 147.76 268.882 147.42 269.432ZM213.92 269.432C213.92 269.982 214.397 270.432 214.979 270.432C215.561 270.432 215.76 269.982 215.42 269.432C215.08 268.882 214.604 268.432 214.361 268.432C214.118 268.432 213.92 268.882 213.92 269.432ZM154.42 270.432C154.76 270.982 155.236 271.432 155.479 271.432C155.722 271.432 155.92 270.982 155.92 270.432C155.92 269.882 155.443 269.432 154.861 269.432C154.279 269.432 154.08 269.882 154.42 270.432ZM156.42 274.432C156.08 274.982 156.279 275.432 156.861 275.432C157.443 275.432 157.92 274.982 157.92 274.432C157.92 273.882 157.722 273.432 157.479 273.432C157.236 273.432 156.76 273.882 156.42 274.432ZM170.92 276.432C170.92 276.982 171.37 277.432 171.92 277.432C172.47 277.432 172.92 276.982 172.92 276.432C172.92 275.882 172.47 275.432 171.92 275.432C171.37 275.432 170.92 275.882 170.92 276.432Z" fill="#242424"/>
</svg>
