<svg width="201" height="64" viewBox="0 0 201 64" fill="none" xmlns="http://www.w3.org/2000/svg">
<mask id="path-1-outside-1_288_328" maskUnits="userSpaceOnUse" x="-0.240234" y="-0.240234" width="201" height="57" fill="black">
<rect fill="white" x="-0.240234" y="-0.240234" width="201" height="57"/>
<path d="M20.6928 13.1094C27.9104 13.1094 35.9638 16.8322 37.7113 24.4298C38.2431 26.785 37.1794 28.6084 34.7482 28.9883C33.9885 29.1402 33.2287 29.2162 32.469 29.2162C30.3416 29.2162 28.8221 28.6844 27.5306 26.861C26.9227 26.1012 26.4669 25.2655 25.8591 24.6577C24.9474 23.5181 23.7318 22.9862 22.4402 22.6823C21.8324 22.6064 21.2246 22.5304 20.6168 22.5304C16.5901 22.5304 13.9309 25.0376 12.8673 28.8363C12.4874 30.1279 12.2595 31.4955 12.3354 32.939C12.3354 37.8014 14.1589 44.6392 20.1609 44.6392C21.9843 44.6392 23.7318 43.8035 24.8714 42.284C25.8591 40.9924 26.8468 39.6249 27.9864 38.4852C29.202 37.1936 30.8735 36.5858 32.5449 36.5858C35.1281 36.5858 37.7113 37.9534 37.8632 40.8405C38.0152 43.3477 36.9515 45.399 35.584 47.3744C32.0131 52.8446 26.087 54.82 19.857 54.82C9.90423 54.4401 2.76253 48.2101 1.09107 38.2573C0.787168 36.5099 0.711193 34.7624 0.787168 32.939C1.16705 22.6823 6.63728 15.4647 17.1219 13.4133C18.2615 13.2614 19.4771 13.2614 20.6928 13.1094Z"/>
<path d="M57.237 22.3025C53.5902 22.3025 52.0706 24.8096 50.855 27.7727C49.7914 30.5838 49.1076 33.3949 49.7154 36.4339C50.3232 39.0171 51.9187 42.9678 55.1856 42.9678C58.2247 42.9678 60.0481 39.169 61.1117 36.8138C61.9475 35.0663 62.0994 33.1669 61.7195 31.3435C61.2637 29.0643 60.8078 26.861 60.8078 24.5057C60.8078 22.6064 58.8325 22.3025 57.237 22.3025ZM78.89 31.1916C78.89 37.3456 77.9023 44.0314 73.7237 48.8179C70.3807 52.9966 66.8099 54.1362 61.8715 54.9719C60.8078 55.1239 59.6682 55.1998 58.5286 55.0479C55.0337 54.592 51.007 53.9082 47.968 52.0089C46.8283 51.3251 45.7647 50.4894 44.625 49.6536C40.0665 46.4627 38.0912 39.5489 37.8632 34.3066C37.7113 32.1033 37.9392 29.9 38.3951 27.7727C40.0665 19.5673 48.0439 13.1854 56.4012 13.1854C57.313 13.1094 58.2247 13.1854 59.1364 13.1094C63.8469 13.1094 69.469 15.9965 73.2678 18.4277C77.3705 21.2388 78.89 26.4811 78.89 31.1916Z"/>
<path d="M92.7661 38.0294V43.1197C92.7661 44.8672 92.8421 46.6146 92.7661 48.438C92.5382 52.1608 91.0187 54.744 86.7641 54.744C82.0536 54.744 80.762 51.3251 80.762 47.0705C80.686 43.0438 80.686 39.0171 80.686 34.9904C80.61 32.1793 80.5341 29.4441 80.5341 26.5571C80.5341 24.5057 80.61 22.4544 80.762 20.4031C81.2178 16.6043 81.9016 13.9452 86.4602 13.9452C87.3719 13.9452 88.3595 14.0211 89.2712 14.325C90.031 14.553 90.6388 15.0848 91.3226 15.4647C91.7784 15.8445 92.2343 15.9965 92.6142 15.9965C93.146 15.9965 93.6019 15.7686 94.1337 15.4647C97.0208 13.8692 99.452 13.0335 102.719 13.0335C110.544 13.0335 117.306 17.8959 117.838 26.1772C118.218 29.6721 118.37 33.1669 118.37 36.7378C118.37 40.0807 118.294 43.4236 118.066 46.7666C117.838 50.9452 116.622 54.82 111.608 54.82C108.721 54.82 106.366 53.1485 105.834 50.1855C105.682 49.1978 105.682 48.1341 105.606 47.0705C105.53 45.323 105.606 43.6516 105.53 41.9801C105.302 40.1567 104.998 38.4093 104.846 36.5858C104.694 35.7501 104.618 34.8384 104.618 34.0027C104.39 32.3312 104.466 30.7357 104.162 29.2162C103.707 26.709 102.263 24.6577 99.5279 24.6577C98.5403 24.6577 97.6286 25.1135 96.7169 25.7973C95.1973 27.0889 94.5136 28.9883 94.1337 30.8877C93.4499 33.2429 92.994 35.5982 92.7661 38.0294Z"/>
<path d="M123.916 43.4996V34.3825C123.916 33.015 123.992 31.7234 124.068 30.3558C124.068 29.1402 124.144 27.7727 124.144 26.4811C124.22 24.3538 123.232 23.746 121.637 23.3661C119.054 22.7583 118.294 21.1628 118.37 18.8836C118.522 16.6043 119.358 15.5406 121.865 14.8569C123.536 14.477 124.22 13.7172 124.296 11.8179C124.296 10.7542 124.22 9.76652 124.296 8.70286C124.296 5.35994 126.651 3.38458 130.07 3.38458C132.881 3.38458 135.009 5.35994 135.768 8.01908C135.92 8.85481 135.996 9.69055 136.148 10.5263C136.452 12.1218 137.592 13.1094 138.883 13.9452C140.099 14.7049 141.163 15.5406 141.846 16.8322C143.138 18.9595 142.53 21.3908 140.707 22.7583C139.795 23.4421 138.655 23.822 137.668 24.2018C136.3 24.7337 135.692 25.7213 135.692 26.9369C135.54 31.4195 135.54 35.7501 135.54 40.1567C135.54 40.9924 135.692 41.8281 135.92 42.6639C136.148 43.9555 137.136 44.7152 138.427 45.1711C139.111 45.399 139.947 45.7789 140.631 46.1588C141.466 46.6906 141.998 47.4503 142.15 48.362C142.454 49.5017 142.454 50.5653 142.074 51.553C141.542 53.1485 140.403 53.9842 138.807 54.2881C137.516 54.668 135.92 54.744 134.553 54.744C133.261 54.744 131.969 54.5161 130.602 54.1362C125.36 52.6167 124.296 48.2861 123.916 43.4996Z"/>
<path d="M197.688 12.1977H197.764V18.5037C197.764 19.7953 198.068 21.0869 198.676 22.3785C198.98 23.0622 199.208 23.9739 199.208 24.8097C199.284 27.4688 199.284 30.2039 199.36 32.8631C199.36 34.2306 199.132 35.5222 198.676 36.8898C198.448 37.8775 198.296 38.9411 198.22 39.9288C198.22 42.588 198.296 45.2471 198.22 47.9062C198.22 51.629 196.473 54.1362 192.446 54.1362C187.811 54.1362 186.748 50.9453 186.748 46.8426V40.4606C186.748 39.0931 186.672 37.7255 186.596 36.4339C186.52 34.2306 186.368 32.0274 186.292 29.8241C186.216 28.3046 186.216 26.937 186.292 25.4935C186.444 23.822 186.672 22.1505 186.824 20.4031C186.9 19.9472 186.9 19.5674 186.976 19.1115C186.976 18.1238 187.052 17.2881 187.052 16.3764C187.128 12.6536 187.128 8.85482 187.204 5.05604C187.204 3.0047 188.495 0.877387 190.775 0.877387C192.294 0.725433 193.814 0.649459 195.257 1.10532C196.777 1.63714 197.612 2.92873 197.612 4.37226C197.764 6.95543 197.688 9.61457 197.688 12.1977Z"/>
</mask>
<path d="M20.6928 13.1094C27.9104 13.1094 35.9638 16.8322 37.7113 24.4298C38.2431 26.785 37.1794 28.6084 34.7482 28.9883C33.9885 29.1402 33.2287 29.2162 32.469 29.2162C30.3416 29.2162 28.8221 28.6844 27.5306 26.861C26.9227 26.1012 26.4669 25.2655 25.8591 24.6577C24.9474 23.5181 23.7318 22.9862 22.4402 22.6823C21.8324 22.6064 21.2246 22.5304 20.6168 22.5304C16.5901 22.5304 13.9309 25.0376 12.8673 28.8363C12.4874 30.1279 12.2595 31.4955 12.3354 32.939C12.3354 37.8014 14.1589 44.6392 20.1609 44.6392C21.9843 44.6392 23.7318 43.8035 24.8714 42.284C25.8591 40.9924 26.8468 39.6249 27.9864 38.4852C29.202 37.1936 30.8735 36.5858 32.5449 36.5858C35.1281 36.5858 37.7113 37.9534 37.8632 40.8405C38.0152 43.3477 36.9515 45.399 35.584 47.3744C32.0131 52.8446 26.087 54.82 19.857 54.82C9.90423 54.4401 2.76253 48.2101 1.09107 38.2573C0.787168 36.5099 0.711193 34.7624 0.787168 32.939C1.16705 22.6823 6.63728 15.4647 17.1219 13.4133C18.2615 13.2614 19.4771 13.2614 20.6928 13.1094Z" fill="white"/>
<path d="M57.237 22.3025C53.5902 22.3025 52.0706 24.8096 50.855 27.7727C49.7914 30.5838 49.1076 33.3949 49.7154 36.4339C50.3232 39.0171 51.9187 42.9678 55.1856 42.9678C58.2247 42.9678 60.0481 39.169 61.1117 36.8138C61.9475 35.0663 62.0994 33.1669 61.7195 31.3435C61.2637 29.0643 60.8078 26.861 60.8078 24.5057C60.8078 22.6064 58.8325 22.3025 57.237 22.3025ZM78.89 31.1916C78.89 37.3456 77.9023 44.0314 73.7237 48.8179C70.3807 52.9966 66.8099 54.1362 61.8715 54.9719C60.8078 55.1239 59.6682 55.1998 58.5286 55.0479C55.0337 54.592 51.007 53.9082 47.968 52.0089C46.8283 51.3251 45.7647 50.4894 44.625 49.6536C40.0665 46.4627 38.0912 39.5489 37.8632 34.3066C37.7113 32.1033 37.9392 29.9 38.3951 27.7727C40.0665 19.5673 48.0439 13.1854 56.4012 13.1854C57.313 13.1094 58.2247 13.1854 59.1364 13.1094C63.8469 13.1094 69.469 15.9965 73.2678 18.4277C77.3705 21.2388 78.89 26.4811 78.89 31.1916Z" fill="white"/>
<path d="M92.7661 38.0294V43.1197C92.7661 44.8672 92.8421 46.6146 92.7661 48.438C92.5382 52.1608 91.0187 54.744 86.7641 54.744C82.0536 54.744 80.762 51.3251 80.762 47.0705C80.686 43.0438 80.686 39.0171 80.686 34.9904C80.61 32.1793 80.5341 29.4441 80.5341 26.5571C80.5341 24.5057 80.61 22.4544 80.762 20.4031C81.2178 16.6043 81.9016 13.9452 86.4602 13.9452C87.3719 13.9452 88.3595 14.0211 89.2712 14.325C90.031 14.553 90.6388 15.0848 91.3226 15.4647C91.7784 15.8445 92.2343 15.9965 92.6142 15.9965C93.146 15.9965 93.6019 15.7686 94.1337 15.4647C97.0208 13.8692 99.452 13.0335 102.719 13.0335C110.544 13.0335 117.306 17.8959 117.838 26.1772C118.218 29.6721 118.37 33.1669 118.37 36.7378C118.37 40.0807 118.294 43.4236 118.066 46.7666C117.838 50.9452 116.622 54.82 111.608 54.82C108.721 54.82 106.366 53.1485 105.834 50.1855C105.682 49.1978 105.682 48.1341 105.606 47.0705C105.53 45.323 105.606 43.6516 105.53 41.9801C105.302 40.1567 104.998 38.4093 104.846 36.5858C104.694 35.7501 104.618 34.8384 104.618 34.0027C104.39 32.3312 104.466 30.7357 104.162 29.2162C103.707 26.709 102.263 24.6577 99.5279 24.6577C98.5403 24.6577 97.6286 25.1135 96.7169 25.7973C95.1973 27.0889 94.5136 28.9883 94.1337 30.8877C93.4499 33.2429 92.994 35.5982 92.7661 38.0294Z" fill="white"/>
<path d="M123.916 43.4996V34.3825C123.916 33.015 123.992 31.7234 124.068 30.3558C124.068 29.1402 124.144 27.7727 124.144 26.4811C124.22 24.3538 123.232 23.746 121.637 23.3661C119.054 22.7583 118.294 21.1628 118.37 18.8836C118.522 16.6043 119.358 15.5406 121.865 14.8569C123.536 14.477 124.22 13.7172 124.296 11.8179C124.296 10.7542 124.22 9.76652 124.296 8.70286C124.296 5.35994 126.651 3.38458 130.07 3.38458C132.881 3.38458 135.009 5.35994 135.768 8.01908C135.92 8.85481 135.996 9.69055 136.148 10.5263C136.452 12.1218 137.592 13.1094 138.883 13.9452C140.099 14.7049 141.163 15.5406 141.846 16.8322C143.138 18.9595 142.53 21.3908 140.707 22.7583C139.795 23.4421 138.655 23.822 137.668 24.2018C136.3 24.7337 135.692 25.7213 135.692 26.9369C135.54 31.4195 135.54 35.7501 135.54 40.1567C135.54 40.9924 135.692 41.8281 135.92 42.6639C136.148 43.9555 137.136 44.7152 138.427 45.1711C139.111 45.399 139.947 45.7789 140.631 46.1588C141.466 46.6906 141.998 47.4503 142.15 48.362C142.454 49.5017 142.454 50.5653 142.074 51.553C141.542 53.1485 140.403 53.9842 138.807 54.2881C137.516 54.668 135.92 54.744 134.553 54.744C133.261 54.744 131.969 54.5161 130.602 54.1362C125.36 52.6167 124.296 48.2861 123.916 43.4996Z" fill="white"/>
<path d="M197.688 12.1977H197.764V18.5037C197.764 19.7953 198.068 21.0869 198.676 22.3785C198.98 23.0622 199.208 23.9739 199.208 24.8097C199.284 27.4688 199.284 30.2039 199.36 32.8631C199.36 34.2306 199.132 35.5222 198.676 36.8898C198.448 37.8775 198.296 38.9411 198.22 39.9288C198.22 42.588 198.296 45.2471 198.22 47.9062C198.22 51.629 196.473 54.1362 192.446 54.1362C187.811 54.1362 186.748 50.9453 186.748 46.8426V40.4606C186.748 39.0931 186.672 37.7255 186.596 36.4339C186.52 34.2306 186.368 32.0274 186.292 29.8241C186.216 28.3046 186.216 26.937 186.292 25.4935C186.444 23.822 186.672 22.1505 186.824 20.4031C186.9 19.9472 186.9 19.5674 186.976 19.1115C186.976 18.1238 187.052 17.2881 187.052 16.3764C187.128 12.6536 187.128 8.85482 187.204 5.05604C187.204 3.0047 188.495 0.877387 190.775 0.877387C192.294 0.725433 193.814 0.649459 195.257 1.10532C196.777 1.63714 197.612 2.92873 197.612 4.37226C197.764 6.95543 197.688 9.61457 197.688 12.1977Z" fill="white"/>
<path d="M20.6928 13.1094C27.9104 13.1094 35.9638 16.8322 37.7113 24.4298C38.2431 26.785 37.1794 28.6084 34.7482 28.9883C33.9885 29.1402 33.2287 29.2162 32.469 29.2162C30.3416 29.2162 28.8221 28.6844 27.5306 26.861C26.9227 26.1012 26.4669 25.2655 25.8591 24.6577C24.9474 23.5181 23.7318 22.9862 22.4402 22.6823C21.8324 22.6064 21.2246 22.5304 20.6168 22.5304C16.5901 22.5304 13.9309 25.0376 12.8673 28.8363C12.4874 30.1279 12.2595 31.4955 12.3354 32.939C12.3354 37.8014 14.1589 44.6392 20.1609 44.6392C21.9843 44.6392 23.7318 43.8035 24.8714 42.284C25.8591 40.9924 26.8468 39.6249 27.9864 38.4852C29.202 37.1936 30.8735 36.5858 32.5449 36.5858C35.1281 36.5858 37.7113 37.9534 37.8632 40.8405C38.0152 43.3477 36.9515 45.399 35.584 47.3744C32.0131 52.8446 26.087 54.82 19.857 54.82C9.90423 54.4401 2.76253 48.2101 1.09107 38.2573C0.787168 36.5099 0.711193 34.7624 0.787168 32.939C1.16705 22.6823 6.63728 15.4647 17.1219 13.4133C18.2615 13.2614 19.4771 13.2614 20.6928 13.1094Z" stroke="white" stroke-width="1.51951" mask="url(#path-1-outside-1_288_328)"/>
<path d="M57.237 22.3025C53.5902 22.3025 52.0706 24.8096 50.855 27.7727C49.7914 30.5838 49.1076 33.3949 49.7154 36.4339C50.3232 39.0171 51.9187 42.9678 55.1856 42.9678C58.2247 42.9678 60.0481 39.169 61.1117 36.8138C61.9475 35.0663 62.0994 33.1669 61.7195 31.3435C61.2637 29.0643 60.8078 26.861 60.8078 24.5057C60.8078 22.6064 58.8325 22.3025 57.237 22.3025ZM78.89 31.1916C78.89 37.3456 77.9023 44.0314 73.7237 48.8179C70.3807 52.9966 66.8099 54.1362 61.8715 54.9719C60.8078 55.1239 59.6682 55.1998 58.5286 55.0479C55.0337 54.592 51.007 53.9082 47.968 52.0089C46.8283 51.3251 45.7647 50.4894 44.625 49.6536C40.0665 46.4627 38.0912 39.5489 37.8632 34.3066C37.7113 32.1033 37.9392 29.9 38.3951 27.7727C40.0665 19.5673 48.0439 13.1854 56.4012 13.1854C57.313 13.1094 58.2247 13.1854 59.1364 13.1094C63.8469 13.1094 69.469 15.9965 73.2678 18.4277C77.3705 21.2388 78.89 26.4811 78.89 31.1916Z" stroke="white" stroke-width="1.51951" mask="url(#path-1-outside-1_288_328)"/>
<path d="M92.7661 38.0294V43.1197C92.7661 44.8672 92.8421 46.6146 92.7661 48.438C92.5382 52.1608 91.0187 54.744 86.7641 54.744C82.0536 54.744 80.762 51.3251 80.762 47.0705C80.686 43.0438 80.686 39.0171 80.686 34.9904C80.61 32.1793 80.5341 29.4441 80.5341 26.5571C80.5341 24.5057 80.61 22.4544 80.762 20.4031C81.2178 16.6043 81.9016 13.9452 86.4602 13.9452C87.3719 13.9452 88.3595 14.0211 89.2712 14.325C90.031 14.553 90.6388 15.0848 91.3226 15.4647C91.7784 15.8445 92.2343 15.9965 92.6142 15.9965C93.146 15.9965 93.6019 15.7686 94.1337 15.4647C97.0208 13.8692 99.452 13.0335 102.719 13.0335C110.544 13.0335 117.306 17.8959 117.838 26.1772C118.218 29.6721 118.37 33.1669 118.37 36.7378C118.37 40.0807 118.294 43.4236 118.066 46.7666C117.838 50.9452 116.622 54.82 111.608 54.82C108.721 54.82 106.366 53.1485 105.834 50.1855C105.682 49.1978 105.682 48.1341 105.606 47.0705C105.53 45.323 105.606 43.6516 105.53 41.9801C105.302 40.1567 104.998 38.4093 104.846 36.5858C104.694 35.7501 104.618 34.8384 104.618 34.0027C104.39 32.3312 104.466 30.7357 104.162 29.2162C103.707 26.709 102.263 24.6577 99.5279 24.6577C98.5403 24.6577 97.6286 25.1135 96.7169 25.7973C95.1973 27.0889 94.5136 28.9883 94.1337 30.8877C93.4499 33.2429 92.994 35.5982 92.7661 38.0294Z" stroke="white" stroke-width="1.51951" mask="url(#path-1-outside-1_288_328)"/>
<path d="M123.916 43.4996V34.3825C123.916 33.015 123.992 31.7234 124.068 30.3558C124.068 29.1402 124.144 27.7727 124.144 26.4811C124.22 24.3538 123.232 23.746 121.637 23.3661C119.054 22.7583 118.294 21.1628 118.37 18.8836C118.522 16.6043 119.358 15.5406 121.865 14.8569C123.536 14.477 124.22 13.7172 124.296 11.8179C124.296 10.7542 124.22 9.76652 124.296 8.70286C124.296 5.35994 126.651 3.38458 130.07 3.38458C132.881 3.38458 135.009 5.35994 135.768 8.01908C135.92 8.85481 135.996 9.69055 136.148 10.5263C136.452 12.1218 137.592 13.1094 138.883 13.9452C140.099 14.7049 141.163 15.5406 141.846 16.8322C143.138 18.9595 142.53 21.3908 140.707 22.7583C139.795 23.4421 138.655 23.822 137.668 24.2018C136.3 24.7337 135.692 25.7213 135.692 26.9369C135.54 31.4195 135.54 35.7501 135.54 40.1567C135.54 40.9924 135.692 41.8281 135.92 42.6639C136.148 43.9555 137.136 44.7152 138.427 45.1711C139.111 45.399 139.947 45.7789 140.631 46.1588C141.466 46.6906 141.998 47.4503 142.15 48.362C142.454 49.5017 142.454 50.5653 142.074 51.553C141.542 53.1485 140.403 53.9842 138.807 54.2881C137.516 54.668 135.92 54.744 134.553 54.744C133.261 54.744 131.969 54.5161 130.602 54.1362C125.36 52.6167 124.296 48.2861 123.916 43.4996Z" stroke="white" stroke-width="1.51951" mask="url(#path-1-outside-1_288_328)"/>
<path d="M197.688 12.1977H197.764V18.5037C197.764 19.7953 198.068 21.0869 198.676 22.3785C198.98 23.0622 199.208 23.9739 199.208 24.8097C199.284 27.4688 199.284 30.2039 199.36 32.8631C199.36 34.2306 199.132 35.5222 198.676 36.8898C198.448 37.8775 198.296 38.9411 198.22 39.9288C198.22 42.588 198.296 45.2471 198.22 47.9062C198.22 51.629 196.473 54.1362 192.446 54.1362C187.811 54.1362 186.748 50.9453 186.748 46.8426V40.4606C186.748 39.0931 186.672 37.7255 186.596 36.4339C186.52 34.2306 186.368 32.0274 186.292 29.8241C186.216 28.3046 186.216 26.937 186.292 25.4935C186.444 23.822 186.672 22.1505 186.824 20.4031C186.9 19.9472 186.9 19.5674 186.976 19.1115C186.976 18.1238 187.052 17.2881 187.052 16.3764C187.128 12.6536 187.128 8.85482 187.204 5.05604C187.204 3.0047 188.495 0.877387 190.775 0.877387C192.294 0.725433 193.814 0.649459 195.257 1.10532C196.777 1.63714 197.612 2.92873 197.612 4.37226C197.764 6.95543 197.688 9.61457 197.688 12.1977Z" stroke="white" stroke-width="1.51951" mask="url(#path-1-outside-1_288_328)"/>
<path d="M183.745 27.1309C183.825 27.2773 183.741 27.5429 183.787 27.7273C183.975 28.5054 183.936 28.8177 184.024 29.5308C184.216 30.5694 184.608 33.7212 183.455 33.7049C183.455 33.7049 183.455 33.7049 183.455 33.7049C183.444 33.7049 183.433 33.7046 183.422 33.7041C183.212 33.6925 182.98 33.4428 182.741 33.411C182.501 33.3795 180.964 33.4244 180.868 33.1164C180.75 32.672 181.036 31.5423 180.976 31.2945C180.941 31.1289 180.771 30.9459 180.71 30.7397C180.511 30.0807 180.526 29.6968 180 29.2072C180.128 28.9192 180.25 28.6256 180.363 28.3243C180.176 28.0416 180.254 27.4862 180.165 27.3013C180.093 27.1514 179.91 27.1214 179.838 26.9675C179.757 26.7962 179.796 26.4554 179.622 26.1491C179.334 25.648 178.916 25.7519 178.712 25.4836C178.5 25.207 178.416 24.6231 178.049 24.3283C177.98 24.3065 177.912 24.2853 177.843 24.2645C177.779 24.3545 177.715 24.4439 177.651 24.5329C177.491 24.3778 177.613 24.1823 177.5 24.0135C177.366 23.8153 177.133 23.8356 177.039 23.7084C176.963 23.6043 176.983 23.3662 176.869 23.2387C176.704 23.0534 176.558 23.2416 176.441 23.1674C176.399 23.1319 175.669 22.492 175.627 22.4594C175.339 22.1672 175.538 21.9208 175.319 21.665C174.705 20.9573 173.799 20.5422 173.057 20.1354C172.724 19.952 172.408 19.7209 172.112 19.4803C173.064 19.1133 172.215 17.859 172.005 19.2131C171.73 18.8404 171.297 18.9928 170.972 18.7607C170.76 18.6106 170.674 18.3711 170.333 18.22C169.717 17.9476 168.883 18.1748 168.999 17.2602C168.205 17.1491 167.614 16.6602 167.153 17.369C166.954 17.3688 166.552 16.7955 166.337 16.6914C166.145 16.5732 164.509 16.145 164.229 16.1346C163.953 16.1025 163.472 16.0711 163.238 16.1392C163.143 16.1658 163.056 16.2709 162.968 16.3681C162.779 16.5716 162.593 16.7387 162.22 16.0987C161.619 16.2045 161.41 16.1942 160.836 16.1434C160.732 16.135 160.703 15.994 160.644 16.0012C160.52 16.0165 160.327 16.149 160.112 16.1954C159.759 16.2718 159.501 16.015 159.624 16.4609C159.407 16.5795 159.192 16.7023 158.982 16.8287C158.883 16.7597 158.783 16.6915 158.682 16.6241C158.582 16.7478 158.484 16.8721 158.388 16.9975C158.362 16.3107 157.603 16.9306 157.989 17.2203C157.522 17.211 157.047 17.2214 156.57 17.2515C156.362 16.5119 155.589 17.5456 155.848 17.8905C155.801 17.9103 155.753 17.9303 155.706 17.9505C155.21 17.9495 154.904 18.2783 154.355 18.4197C153.802 18.5678 153.813 18.4832 153.487 18.268C153.382 18.3533 153.277 18.4401 153.173 18.5276C153.107 19.7065 152.277 18.2449 151.724 19.565C151.049 19.3165 150.484 20.191 150.161 20.7575C150.122 20.8235 150.201 20.9088 150.157 21.0019C150.045 21.2252 149.517 21.5552 149.806 21.7999C149.585 21.8742 149.365 21.9538 149.145 22.0385C149.083 22.2121 149.024 22.3857 148.968 22.5595C149.059 22.6341 149.149 22.7088 149.24 22.7834C148.715 22.7838 148.506 23.3061 148.276 23.4612C148.229 23.4922 148.091 23.4054 147.959 23.5143C147.803 23.6412 147.64 23.9656 147.473 24.1319C147.575 24.3048 147.679 24.4759 147.785 24.645C147.657 25.0337 147.18 24.9151 147.028 25.1077C146.997 25.1407 146.656 25.8529 146.649 25.8973C146.571 26.2472 146.96 26.3245 146.495 27.1899C146.414 27.3449 146.231 27.4256 146.169 27.5731C146.051 27.8341 146.086 28.7383 146.354 28.8802C145.9 29.0893 145.825 30.003 145.673 30.24C145.626 30.3115 145.392 30.2815 145.297 30.5184C145.217 30.7117 145.319 31.2565 145.257 31.5043C145.189 31.7687 144.985 31.8469 144.959 31.9678C144.934 32.0826 145.082 32.2032 145.069 32.3598C145.026 32.8499 144.757 33.2863 144.752 33.6867C144.752 33.6928 144.752 33.6989 144.752 33.7049C144.755 34.2762 145.241 34.7498 145.486 35.1819C145.465 35.2979 145.376 35.4186 145.388 35.5394C145.527 37.0244 145.853 38.6854 146.334 40.1253C146.523 40.7901 146.805 42.6626 147.515 41.7348C147.768 41.8593 148.334 43.5558 148.555 43.8267C148.75 44.1014 149.064 44.1925 149.231 44.3922C149.737 44.9911 150.015 45.5055 150.826 46.0474C151.037 46.1861 151.383 46.1926 151.49 46.2885C151.618 46.4047 151.621 46.6932 151.79 46.8486C152.189 47.2223 153.057 47.7554 153.481 48.0593C153.558 48.1163 153.484 48.2966 153.571 48.4201C153.91 48.9038 154.468 49.1749 154.658 48.5834C155.096 49.2102 155.817 49.1932 156.4 49.4049C157.623 49.8967 159.973 50.5904 161.154 50.4135C161.89 50.315 161.873 50.0529 162.921 50.3058C162.937 50.3093 162.952 50.3128 162.968 50.3164C163.188 50.3675 163.411 50.4296 163.68 50.4776C164.349 50.5994 165.048 51.0363 165.476 50.3585C166.244 50.4079 166.797 50.1745 167.473 50.5419C167.508 50.4039 167.541 50.2659 167.572 50.1279C167.661 50.101 167.749 50.0735 167.837 50.0453C167.898 50.1523 167.958 50.2591 168.02 50.3657C168.686 50.2099 169.319 49.4582 169.825 49.2455C170.702 48.9304 172.892 47.8915 173.695 47.4387C174.131 47.2162 173.986 47.0004 174.534 47.2338C174.596 47.1362 174.656 47.0383 174.715 46.9401C174.693 46.8083 174.669 46.677 174.644 46.5464C175.102 46.1451 175.749 45.7647 176.148 45.3287C176.891 44.539 177.583 43.0783 178.284 42.2653C178.465 42.0626 178.837 41.8814 178.957 41.6426C179.132 41.2945 178.821 41.0383 179.013 40.6007C179.354 39.8606 180.291 38.5268 180.431 37.7231C180.476 37.4891 180.356 37.3491 180.374 37.1869C180.445 36.5095 180.539 35.9523 180.376 35.2882C180.811 34.633 181.285 34.7069 181.789 34.5041C182.17 34.3536 183.04 33.8051 183.363 33.715C183.591 33.6553 183.884 33.8788 184.136 33.7963C184.325 34.8095 184.068 35.2418 183.632 36.0006C183.477 37.4787 183.156 38.9419 182.676 40.3518C182.502 40.4342 182.327 40.5134 182.152 40.5894C182.152 40.5893 182.152 40.5892 182.152 40.5891C181.806 41.0553 182.039 41.4031 181.99 41.7185C181.664 44.8685 177.252 49.2376 174.405 50.7148C173.834 51.105 171.897 52.3286 171.355 52.2862C171.219 52.2821 171.105 52.1007 170.982 52.1424C169.963 52.7045 168.887 53.1844 167.768 53.5724C166.171 53.7204 164.584 53.9451 162.968 54.0147C162.127 54.0508 161.288 54.0448 160.456 53.9642C153.881 53.3761 147.633 49.4396 144.476 43.615C143.858 42.507 143.066 41.0669 142.793 39.8341C142.679 39.3209 142.945 39.0267 142.538 38.4305C142.625 38.4022 142.712 38.374 142.8 38.3459C142.558 37.7996 142.278 37.4684 142.152 36.8075C142.035 36.2582 141.892 34.7646 141.928 34.2696C141.939 34.0112 142.112 34.1041 142.108 33.8653C142.107 33.8178 142.104 33.7639 142.098 33.7049C142.05 33.2572 141.894 32.5084 141.939 32.003C141.977 31.4875 142.287 30.6535 142.33 30.2627C142.467 28.8551 142.616 27.247 143.282 25.8528C143.464 25.4679 143.895 25.0687 143.946 24.9499C144.045 24.7144 143.888 24.5496 143.942 24.3813C144.214 23.5196 145.158 22.4673 145.672 21.7846C147.324 19.5225 149.494 17.4075 151.917 16.0063C153.417 15.0784 156.147 13.9311 157.772 13.7391C158.118 13.6904 158.082 13.9419 158.363 13.878C158.676 13.8089 158.816 13.6197 158.962 13.5787C159.871 13.2994 161.861 12.9573 162.968 13.0771C163.08 13.0869 163.182 13.1 163.273 13.1163C163.462 13.1503 163.592 13.3392 163.703 13.3423C163.76 13.3442 163.892 13.2225 164.07 13.2187C165.654 13.1952 166.802 13.4461 168.289 13.8632C171.13 14.6506 174.383 16.0314 176.681 18.1805C177.183 18.6441 177.264 19.2331 177.333 19.2933C177.486 19.4306 177.754 19.3451 178.094 19.6064C179.236 20.4764 180.196 22.1583 180.979 23.2434C181.376 23.7749 182.087 24.444 182.429 25.0259C182.716 25.4856 183.06 26.7052 183.259 26.8856C183.384 26.9946 183.658 26.9732 183.745 27.1309ZM170.049 17.8707C170.29 17.5066 169.382 17.5202 169.588 17.8493C169.633 17.9215 169.987 17.9631 170.049 17.8707ZM144.993 37.672C145.109 37.6371 145.226 37.6024 145.343 37.5679C145.269 37.4717 145.196 37.374 145.124 37.2754C145.065 37.3514 145.007 37.4285 144.949 37.506C144.963 37.5614 144.978 37.6168 144.993 37.672Z" fill="white"/>
<mask id="path-4-outside-2_288_328" maskUnits="userSpaceOnUse" x="150.138" y="19.4176" width="25.7236" height="27.7446" fill="black">
<rect fill="white" x="150.138" y="19.4176" width="25.7236" height="27.7446"/>
<path d="M160.344 27.7859L160.336 27.7568L159.462 28.0165C159.083 28.1291 158.748 28.3873 158.514 28.7738C158.245 29.3611 158.167 29.9547 158.358 30.5956C158.47 30.9743 158.6 31.4113 158.742 31.7813C159.161 32.7663 159.834 32.7884 160.763 32.6074C161.179 32.5153 161.558 32.4028 161.975 32.3107C162.237 32.2328 162.499 32.1548 162.778 32.1352C163.474 32.0234 164.127 31.7661 164.695 31.4386C165.273 31.1403 165.661 30.7395 165.863 30.1404C166.016 29.5878 165.956 29.0666 165.771 28.5509C165.106 26.8463 163.429 26.9642 161.955 27.3389C161.384 27.4451 160.898 27.6214 160.344 27.7859ZM156.676 40.5115C156.451 39.7541 156.06 39.0778 155.61 38.4188C155.242 37.9259 154.914 37.3574 154.625 36.8094C154.315 36.2993 154.054 35.7426 153.802 35.2151C153.686 34.9324 153.553 34.5915 153.429 34.2797C153.282 33.7845 153.114 33.3271 152.976 32.861C152.825 32.4618 152.742 32.0745 152.562 31.6839C152.207 30.8069 152.034 29.907 152.075 28.9756C152.221 27.4419 152.898 25.8776 154.038 24.8094C154.742 24.1882 155.56 23.8498 156.44 23.7152L157.919 23.4658C158.461 23.3682 158.982 23.3084 159.515 23.1817C160.106 23.0377 160.68 22.8354 161.301 22.6827C163.369 22.068 165.055 21.6619 167.178 22.6163C167.928 22.9006 168.605 23.3652 169.113 24.0069C169.459 24.3163 169.684 24.7564 169.852 25.2139C170.219 26.3413 170.353 27.538 170.294 28.7284C170.278 29.5259 170.127 30.2998 169.759 30.98C169.665 31.1981 169.63 31.3989 169.556 31.5792C169.459 31.8933 169.537 32.1555 169.79 32.3657C170.072 32.5673 170.383 32.7602 170.653 33.0287C171.187 33.4405 171.582 34.0208 171.86 34.6357C172.091 35.201 172.302 35.8041 172.554 36.3316C172.913 37.1126 173.339 37.9054 173.727 38.6778C174.072 39.3045 174.204 39.9627 173.789 40.5933C173.49 41.1893 172.951 41.5081 172.339 41.6899C170.621 42.2007 169.206 41.0677 168.584 39.5088C168.197 38.4191 167.739 37.4137 167.244 36.3878C167.1 36.1138 166.681 35.9846 166.343 36.0216C165.734 36.1074 165.117 36.164 164.546 36.2702C164.246 36.3277 163.946 36.3851 163.626 36.4804C162.373 36.8526 161.851 38.4028 161.956 39.6082C162.01 40.0042 162.047 40.3419 162.093 40.7088C162.204 41.4048 162.287 42.1094 162.207 42.7991C162.136 43.2006 162.056 43.573 161.881 43.9422C161.678 44.5414 161.151 44.7933 160.597 44.9577C159.636 45.2435 158.253 45.4961 157.88 44.2434C157.421 43.0168 157.048 41.7641 156.676 40.5115Z"/>
</mask>
<path d="M160.344 27.7859L160.336 27.7568L159.462 28.0165C159.083 28.1291 158.748 28.3873 158.514 28.7738C158.245 29.3611 158.167 29.9547 158.358 30.5956C158.47 30.9743 158.6 31.4113 158.742 31.7813C159.161 32.7663 159.834 32.7884 160.763 32.6074C161.179 32.5153 161.558 32.4028 161.975 32.3107C162.237 32.2328 162.499 32.1548 162.778 32.1352C163.474 32.0234 164.127 31.7661 164.695 31.4386C165.273 31.1403 165.661 30.7395 165.863 30.1404C166.016 29.5878 165.956 29.0666 165.771 28.5509C165.106 26.8463 163.429 26.9642 161.955 27.3389C161.384 27.4451 160.898 27.6214 160.344 27.7859ZM156.676 40.5115C156.451 39.7541 156.06 39.0778 155.61 38.4188C155.242 37.9259 154.914 37.3574 154.625 36.8094C154.315 36.2993 154.054 35.7426 153.802 35.2151C153.686 34.9324 153.553 34.5915 153.429 34.2797C153.282 33.7845 153.114 33.3271 152.976 32.861C152.825 32.4618 152.742 32.0745 152.562 31.6839C152.207 30.8069 152.034 29.907 152.075 28.9756C152.221 27.4419 152.898 25.8776 154.038 24.8094C154.742 24.1882 155.56 23.8498 156.44 23.7152L157.919 23.4658C158.461 23.3682 158.982 23.3084 159.515 23.1817C160.106 23.0377 160.68 22.8354 161.301 22.6827C163.369 22.068 165.055 21.6619 167.178 22.6163C167.928 22.9006 168.605 23.3652 169.113 24.0069C169.459 24.3163 169.684 24.7564 169.852 25.2139C170.219 26.3413 170.353 27.538 170.294 28.7284C170.278 29.5259 170.127 30.2998 169.759 30.98C169.665 31.1981 169.63 31.3989 169.556 31.5792C169.459 31.8933 169.537 32.1555 169.79 32.3657C170.072 32.5673 170.383 32.7602 170.653 33.0287C171.187 33.4405 171.582 34.0208 171.86 34.6357C172.091 35.201 172.302 35.8041 172.554 36.3316C172.913 37.1126 173.339 37.9054 173.727 38.6778C174.072 39.3045 174.204 39.9627 173.789 40.5933C173.49 41.1893 172.951 41.5081 172.339 41.6899C170.621 42.2007 169.206 41.0677 168.584 39.5088C168.197 38.4191 167.739 37.4137 167.244 36.3878C167.1 36.1138 166.681 35.9846 166.343 36.0216C165.734 36.1074 165.117 36.164 164.546 36.2702C164.246 36.3277 163.946 36.3851 163.626 36.4804C162.373 36.8526 161.851 38.4028 161.956 39.6082C162.01 40.0042 162.047 40.3419 162.093 40.7088C162.204 41.4048 162.287 42.1094 162.207 42.7991C162.136 43.2006 162.056 43.573 161.881 43.9422C161.678 44.5414 161.151 44.7933 160.597 44.9577C159.636 45.2435 158.253 45.4961 157.88 44.2434C157.421 43.0168 157.048 41.7641 156.676 40.5115Z" fill="white"/>
<path d="M160.344 27.7859L160.049 27.8737L160.137 28.169L160.432 28.0812L160.344 27.7859ZM160.336 27.7568L160.631 27.669L160.543 27.3737L160.248 27.4615L160.336 27.7568ZM158.514 28.7738L158.25 28.6143L158.241 28.6294L158.234 28.6454L158.514 28.7738ZM158.742 31.7813L158.454 31.8916L158.458 31.9021L158.742 31.7813ZM160.763 32.6074L160.822 32.9099L160.829 32.9082L160.763 32.6074ZM161.975 32.3107L162.041 32.6115L162.052 32.6091L162.062 32.606L161.975 32.3107ZM162.778 32.1352L162.8 32.4425L162.814 32.4415L162.827 32.4394L162.778 32.1352ZM164.695 31.4386L164.554 31.1646L164.542 31.1716L164.695 31.4386ZM165.863 30.1404L166.155 30.239L166.158 30.2308L166.16 30.2225L165.863 30.1404ZM165.771 28.5509L166.061 28.4468L166.058 28.4389L165.771 28.5509ZM161.955 27.3389L162.012 27.6417L162.021 27.6399L162.031 27.6374L161.955 27.3389ZM155.61 38.4188L155.865 38.245L155.857 38.2343L155.61 38.4188ZM154.625 36.8094L154.897 36.6655L154.893 36.6573L154.888 36.6494L154.625 36.8094ZM153.802 35.2151L153.517 35.3318L153.52 35.3399L153.524 35.3478L153.802 35.2151ZM153.429 34.2797L153.134 34.3675L153.138 34.3809L153.143 34.3939L153.429 34.2797ZM152.976 32.861L153.271 32.7732L153.268 32.7627L153.264 32.7524L152.976 32.861ZM152.562 31.6839L152.277 31.7999L152.282 31.8126L152.562 31.6839ZM152.075 28.9756L151.768 28.9463L151.767 28.9543L151.767 28.9623L152.075 28.9756ZM154.038 24.8094L153.834 24.5784L153.828 24.5845L154.038 24.8094ZM156.44 23.7152L156.486 24.0198L156.491 24.019L156.44 23.7152ZM157.919 23.4658L157.97 23.7696L157.974 23.769L157.919 23.4658ZM159.515 23.1817L159.586 23.4814L159.588 23.481L159.515 23.1817ZM161.301 22.6827L161.374 22.9819L161.381 22.9801L161.388 22.978L161.301 22.6827ZM167.178 22.6163L167.052 22.8973L167.06 22.9011L167.069 22.9044L167.178 22.6163ZM169.113 24.0069L168.871 24.198L168.888 24.2187L168.907 24.2364L169.113 24.0069ZM169.852 25.2139L170.145 25.1185L170.141 25.1078L169.852 25.2139ZM170.294 28.7284L169.986 28.7133L169.986 28.722L170.294 28.7284ZM169.759 30.98L169.488 30.8333L169.481 30.8456L169.476 30.8584L169.759 30.98ZM169.556 31.5792L169.271 31.4632L169.266 31.4756L169.262 31.4884L169.556 31.5792ZM169.79 32.3657L169.593 32.6025L169.602 32.6097L169.611 32.6163L169.79 32.3657ZM170.653 33.0287L170.436 33.2471L170.449 33.2608L170.465 33.2727L170.653 33.0287ZM171.86 34.6357L172.145 34.5189L172.14 34.5088L171.86 34.6357ZM172.554 36.3316L172.834 36.2029L172.832 36.1988L172.554 36.3316ZM173.727 38.6778L173.451 38.8162L173.457 38.8263L173.727 38.6778ZM173.789 40.5933L173.531 40.424L173.521 40.4392L173.513 40.4554L173.789 40.5933ZM168.584 39.5088L168.294 39.612L168.298 39.6229L168.584 39.5088ZM167.244 36.3878L167.522 36.2538L167.517 36.2438L167.244 36.3878ZM166.343 36.0216L166.309 35.7152L166.3 35.7165L166.343 36.0216ZM164.546 36.2702L164.49 35.9674L164.488 35.9677L164.546 36.2702ZM161.956 39.6082L161.649 39.6348L161.65 39.6424L161.651 39.65L161.956 39.6082ZM162.093 40.7088L161.787 40.7469L161.788 40.7577L162.093 40.7088ZM162.207 42.7991L162.51 42.8527L162.512 42.8438L162.513 42.8348L162.207 42.7991ZM161.881 43.9422L161.602 43.8099L161.595 43.8264L161.589 43.8436L161.881 43.9422ZM157.88 44.2434L158.176 44.1557L158.173 44.1454L158.169 44.1353L157.88 44.2434ZM160.344 27.7859L160.64 27.6981L160.631 27.669L160.336 27.7568L160.04 27.8445L160.049 27.8737L160.344 27.7859ZM160.336 27.7568L160.248 27.4615L159.374 27.7212L159.462 28.0165L159.55 28.3118L160.424 28.0521L160.336 27.7568ZM159.462 28.0165L159.374 27.7212C158.917 27.857 158.521 28.1667 158.25 28.6143L158.514 28.7738L158.777 28.9333C158.974 28.6079 159.249 28.4011 159.55 28.3118L159.462 28.0165ZM158.514 28.7738L158.234 28.6454C157.938 29.2899 157.848 29.9605 158.062 30.6834L158.358 30.5956L158.653 30.5078C158.487 29.949 158.551 29.4323 158.794 28.9022L158.514 28.7738ZM158.358 30.5956L158.062 30.6834C158.174 31.0594 158.307 31.5083 158.454 31.8915L158.742 31.7813L159.03 31.6712C158.893 31.3143 158.766 30.8892 158.653 30.5078L158.358 30.5956ZM158.742 31.7813L158.458 31.9021C158.694 32.454 159.025 32.7856 159.469 32.9254C159.886 33.0568 160.354 33.0008 160.822 32.9098L160.763 32.6074L160.704 32.305C160.242 32.3949 159.91 32.4184 159.654 32.3377C159.425 32.2656 159.21 32.0936 159.025 31.6606L158.742 31.7813ZM160.763 32.6074L160.829 32.9082C161.044 32.8608 161.247 32.8084 161.445 32.7574C161.645 32.706 161.839 32.6562 162.041 32.6115L161.975 32.3107L161.908 32.0099C161.694 32.0572 161.49 32.1097 161.292 32.1607C161.092 32.212 160.899 32.2619 160.696 32.3066L160.763 32.6074ZM161.975 32.3107L162.062 32.606C162.329 32.5266 162.56 32.4594 162.8 32.4425L162.778 32.1352L162.757 31.8279C162.438 31.8503 162.144 31.9389 161.887 32.0154L161.975 32.3107ZM162.778 32.1352L162.827 32.4394C163.566 32.3208 164.254 32.0485 164.849 31.7055L164.695 31.4386L164.542 31.1716C164 31.4836 163.383 31.7261 162.73 31.831L162.778 32.1352ZM164.695 31.4386L164.837 31.7123C165.472 31.384 165.923 30.9266 166.155 30.239L165.863 30.1404L165.571 30.0418C165.399 30.5525 165.073 30.8965 164.554 31.1649L164.695 31.4386ZM165.863 30.1404L166.16 30.2225C166.334 29.5951 166.262 29.0077 166.061 28.4469L165.771 28.5509L165.481 28.6549C165.65 29.1255 165.698 29.5805 165.566 30.0583L165.863 30.1404ZM165.771 28.5509L166.058 28.4389C165.685 27.4824 165.01 27.019 164.227 26.863C163.47 26.7123 162.627 26.8504 161.879 27.0403L161.955 27.3389L162.031 27.6374C162.758 27.4527 163.49 27.3445 164.106 27.4673C164.697 27.5849 165.192 27.9148 165.484 28.6628L165.771 28.5509ZM161.955 27.3389L161.899 27.036C161.307 27.1462 160.789 27.3323 160.257 27.4906L160.344 27.7859L160.432 28.0812C161.006 27.9106 161.462 27.744 162.012 27.6417L161.955 27.3389ZM156.676 40.5115L156.971 40.4238C156.733 39.6217 156.321 38.9148 155.865 38.2452L155.61 38.4188L155.356 38.5924C155.798 39.2408 156.169 39.8865 156.381 40.5993L156.676 40.5115ZM155.61 38.4188L155.857 38.2343C155.503 37.7604 155.184 37.2082 154.897 36.6655L154.625 36.8094L154.352 36.9534C154.645 37.5066 154.981 38.0914 155.363 38.6032L155.61 38.4188ZM154.625 36.8094L154.888 36.6494C154.588 36.1554 154.334 35.6146 154.08 35.0823L153.802 35.2151L153.524 35.3478C153.774 35.8706 154.041 36.4431 154.361 36.9695L154.625 36.8094ZM153.802 35.2151L154.087 35.0984C153.972 34.8173 153.841 34.4808 153.715 34.1656L153.429 34.2797L153.143 34.3939C153.266 34.7023 153.401 35.0476 153.517 35.3318L153.802 35.2151ZM153.429 34.2797L153.724 34.192C153.649 33.9392 153.569 33.6967 153.492 33.4626C153.414 33.2272 153.339 33.0009 153.271 32.7732L152.976 32.861L152.68 32.9488C152.751 33.1872 152.829 33.4226 152.907 33.6563C152.984 33.8913 153.062 34.1251 153.134 34.3675L153.429 34.2797ZM152.976 32.861L153.264 32.7524C153.193 32.5628 153.138 32.3786 153.074 32.176C153.011 31.9778 152.94 31.7685 152.842 31.5553L152.562 31.6839L152.282 31.8126C152.364 31.9899 152.425 32.1695 152.486 32.3624C152.546 32.551 152.608 32.76 152.687 32.9696L152.976 32.861ZM152.562 31.6839L152.848 31.5681C152.507 30.7281 152.344 29.8721 152.382 28.9889L152.075 28.9756L151.767 28.9623C151.724 29.9419 151.906 30.8857 152.277 31.7997L152.562 31.6839ZM152.075 28.9756L152.381 29.0049C152.522 27.5347 153.171 26.0439 154.249 25.0342L154.038 24.8094L153.828 24.5845C152.624 25.7113 151.92 27.3492 151.768 28.9463L152.075 28.9756ZM154.038 24.8094L154.242 25.0402C154.895 24.4635 155.657 24.1466 156.486 24.0198L156.44 23.7152L156.393 23.4107C155.464 23.5529 154.588 23.913 153.834 24.5785L154.038 24.8094ZM156.44 23.7152L156.491 24.019L157.97 23.7696L157.919 23.4658L157.868 23.162L156.389 23.4114L156.44 23.7152ZM157.919 23.4658L157.974 23.769C158.488 23.6763 159.044 23.6102 159.586 23.4814L159.515 23.1817L159.444 22.882C158.92 23.0066 158.433 23.0601 157.865 23.1626L157.919 23.4658ZM159.515 23.1817L159.588 23.481C159.892 23.4069 160.191 23.3181 160.485 23.2308C160.781 23.1428 161.072 23.0562 161.374 22.9819L161.301 22.6827L161.227 22.3836C160.909 22.4619 160.603 22.5528 160.309 22.6402C160.013 22.7282 159.729 22.8125 159.442 22.8824L159.515 23.1817ZM161.301 22.6827L161.388 22.978C163.449 22.3655 165.039 21.9923 167.052 22.8973L167.178 22.6163L167.304 22.3353C165.072 21.3315 163.288 21.7706 161.213 22.3874L161.301 22.6827ZM167.178 22.6163L167.069 22.9044C167.773 23.1712 168.402 23.6047 168.871 24.198L169.113 24.0069L169.355 23.8157C168.809 23.1257 168.084 22.63 167.287 22.3282L167.178 22.6163ZM169.113 24.0069L168.907 24.2364C169.197 24.496 169.402 24.8802 169.563 25.3199L169.852 25.2139L170.141 25.1078C169.967 24.6326 169.72 24.1366 169.318 23.7773L169.113 24.0069ZM169.852 25.2139L169.559 25.3092C169.913 26.3967 170.043 27.5555 169.987 28.7133L170.294 28.7284L170.602 28.7435C170.662 27.5205 170.525 26.2859 170.145 25.1186L169.852 25.2139ZM170.294 28.7284L169.986 28.722C169.97 29.4866 169.826 30.2085 169.488 30.8333L169.759 30.98L170.03 31.1268C170.428 30.3912 170.585 29.5652 170.602 28.7348L170.294 28.7284ZM169.759 30.98L169.476 30.8584C169.421 30.9852 169.385 31.1048 169.355 31.206C169.323 31.3122 169.301 31.3902 169.271 31.4632L169.556 31.5792L169.842 31.6951C169.885 31.5878 169.917 31.4753 169.945 31.3816C169.974 31.2827 170.003 31.1929 170.042 31.1017L169.759 30.98ZM169.556 31.5792L169.262 31.4884C169.199 31.6917 169.187 31.8989 169.247 32.0991C169.306 32.2994 169.429 32.4665 169.593 32.6025L169.79 32.3657L169.987 32.1289C169.898 32.0547 169.856 31.9855 169.837 31.9236C169.819 31.8617 169.816 31.7808 169.851 31.6699L169.556 31.5792ZM169.79 32.3657L169.611 32.6163C169.914 32.8329 170.189 33.0019 170.436 33.2471L170.653 33.0287L170.87 32.8102C170.577 32.5184 170.23 32.3016 169.969 32.1151L169.79 32.3657ZM170.653 33.0287L170.465 33.2727C170.948 33.6447 171.315 34.1782 171.579 34.7625L171.86 34.6357L172.14 34.5088C171.849 33.8634 171.427 33.2362 170.841 32.7846L170.653 33.0287ZM171.86 34.6357L171.575 34.7524C171.797 35.2954 172.02 35.9274 172.276 36.4643L172.554 36.3316L172.832 36.1988C172.584 35.6807 172.385 35.1065 172.145 34.5189L171.86 34.6357ZM172.554 36.3316L172.274 36.4602C172.636 37.2474 173.069 38.0545 173.451 38.8161L173.727 38.6778L174.002 38.5395C173.609 37.7564 173.19 36.9778 172.834 36.2029L172.554 36.3316ZM173.727 38.6778L173.457 38.8263C173.776 39.4057 173.856 39.9304 173.531 40.424L173.789 40.5933L174.046 40.7627C174.551 39.9951 174.368 39.2034 173.997 38.5293L173.727 38.6778ZM173.789 40.5933L173.513 40.4554C173.267 40.9464 172.819 41.226 172.252 41.3946L172.339 41.6899L172.427 41.9852C173.083 41.7902 173.713 41.4321 174.064 40.7313L173.789 40.5933ZM172.339 41.6899L172.252 41.3946C170.745 41.8425 169.459 40.8708 168.87 39.3946L168.584 39.5088L168.298 39.6229C168.953 41.2645 170.496 42.559 172.427 41.9852L172.339 41.6899ZM168.584 39.5088L168.874 39.4056C168.482 38.3004 168.019 37.2834 167.522 36.2539L167.244 36.3878L166.967 36.5217C167.46 37.544 167.912 38.5378 168.294 39.6119L168.584 39.5088ZM167.244 36.3878L167.517 36.2438C167.397 36.0172 167.181 35.8772 166.974 35.7996C166.764 35.7208 166.526 35.6916 166.309 35.7154L166.343 36.0216L166.376 36.3279C166.497 36.3146 166.638 36.3315 166.758 36.3765C166.881 36.4228 166.947 36.4844 166.972 36.5318L167.244 36.3878ZM166.343 36.0216L166.3 35.7165C165.714 35.7992 165.068 35.8598 164.49 35.9674L164.546 36.2702L164.603 36.5731C165.166 36.4682 165.755 36.4156 166.386 36.3267L166.343 36.0216ZM164.546 36.2702L164.488 35.9677C164.19 36.0248 163.875 36.0848 163.538 36.1851L163.626 36.4804L163.714 36.7757C164.017 36.6854 164.303 36.6305 164.604 36.5728L164.546 36.2702ZM163.626 36.4804L163.538 36.1851C162.804 36.4033 162.302 36.9623 162.003 37.6011C161.704 38.2386 161.592 38.9822 161.649 39.6348L161.956 39.6082L162.263 39.5815C162.215 39.0287 162.311 38.3946 162.561 37.8626C162.81 37.3319 163.195 36.9297 163.714 36.7757L163.626 36.4804ZM161.956 39.6082L161.651 39.65C161.705 40.0439 161.741 40.3742 161.787 40.7468L162.093 40.7088L162.398 40.6708C162.353 40.3097 162.316 39.9645 162.261 39.5663L161.956 39.6082ZM162.093 40.7088L161.788 40.7577C161.899 41.4491 161.976 42.1184 161.901 42.7635L162.207 42.7991L162.513 42.8348C162.598 42.1005 162.509 41.3605 162.397 40.66L162.093 40.7088ZM162.207 42.7991L161.903 42.7455C161.833 43.1428 161.759 43.4804 161.602 43.8099L161.881 43.9422L162.159 44.0746C162.353 43.6656 162.438 43.2585 162.51 42.8527L162.207 42.7991ZM161.881 43.9422L161.589 43.8436C161.438 44.29 161.046 44.5028 160.509 44.6624L160.597 44.9577L160.685 45.2531C161.255 45.0837 161.918 44.7927 162.172 44.0408L161.881 43.9422ZM160.597 44.9577L160.509 44.6624C160.033 44.8039 159.499 44.9216 159.052 44.8713C158.834 44.8468 158.653 44.7837 158.512 44.6773C158.373 44.5734 158.252 44.4129 158.176 44.1557L157.88 44.2434L157.585 44.3312C157.695 44.7003 157.886 44.9779 158.142 45.17C158.394 45.3596 158.689 45.4504 158.983 45.4836C159.562 45.5488 160.2 45.3973 160.685 45.2531L160.597 44.9577ZM157.88 44.2434L158.169 44.1353C157.713 42.9204 157.344 41.6781 156.971 40.4238L156.676 40.5115L156.381 40.5993C156.753 41.8502 157.128 43.1132 157.592 44.3515L157.88 44.2434Z" fill="white" mask="url(#path-4-outside-2_288_328)"/>
</svg>
